<?xml version="1.0" encoding="UTF-8"?>
<svg version="1.1" xmlns="http://www.w3.org/2000/svg" width="874" height="285">
<path d="M0 0 C1.26165985 -0.00637985 2.5233197 -0.0127597 3.82321167 -0.01933289 C5.19740765 -0.02086176 6.57160414 -0.02197561 7.94580078 -0.02270508 C9.36060622 -0.02592024 10.77541132 -0.0292845 12.19021606 -0.03279114 C15.1541623 -0.03877358 18.11807941 -0.04063196 21.08203125 -0.04003906 C24.87039231 -0.03993751 28.65856564 -0.05358602 32.44688225 -0.07081127 C35.36891529 -0.08195819 38.29090335 -0.08395744 41.21295547 -0.08342934 C42.60912854 -0.08460553 44.0053029 -0.08900702 45.40145493 -0.0967617 C47.35875767 -0.10661508 49.31611571 -0.10240556 51.2734375 -0.09765625 C52.38500214 -0.09908127 53.49656677 -0.10050629 54.64181519 -0.10197449 C60.58997578 0.36872717 65.09429859 2.48906087 69.76611328 6.14526367 C76.21272058 14.20352279 76.0837091 22.2658079 76.10205078 32.16479492 C76.11203598 34.04541878 76.11203598 34.04541878 76.1222229 35.96403503 C76.13232679 38.61093396 76.13790858 41.2574218 76.13671875 43.90429688 C76.13655618 46.60150971 76.15044912 49.29804353 76.17773438 51.99511719 C76.21453305 55.90605196 76.22419845 59.81620384 76.22705078 63.72729492 C76.24142181 64.92240189 76.25579285 66.11750885 76.27059937 67.34883118 C76.22564306 75.66210488 75.12128963 82.99716478 69.76611328 89.61791992 C69.10611328 90.14256836 68.44611328 90.6672168 67.76611328 91.20776367 C67.10611328 91.75561523 66.44611328 92.3034668 65.76611328 92.86791992 C61.83614239 95.3778818 57.96154311 95.2826876 53.38037109 95.32226562 C52.08512512 95.33510086 50.78987915 95.3479361 49.4553833 95.36116028 C48.04333888 95.36932921 46.6312901 95.37677265 45.21923828 95.38354492 C44.50474266 95.38762045 43.79024704 95.39169598 43.05410004 95.395895 C39.27125848 95.41672285 35.48845282 95.431038 31.70556641 95.44042969 C27.81408875 95.45147984 23.92318511 95.4858723 20.03190994 95.52560139 C17.02572626 95.55184497 14.01967773 95.56012838 11.01338959 95.56371117 C9.57976154 95.56855817 8.14613877 95.580118 6.7126236 95.59874916 C-9.27330912 95.79358264 -9.27330912 95.79358264 -15.74090576 89.73310852 C-23.46416839 81.12141053 -22.38859022 69.29910147 -22.40185547 58.43041992 C-22.40518387 57.45342636 -22.40851227 56.4764328 -22.41194153 55.46983337 C-22.41696446 53.42032333 -22.4193513 51.37080525 -22.41918945 49.32128906 C-22.42137889 46.21885511 -22.43959267 43.11677577 -22.45849609 40.0144043 C-22.53879169 12.15071364 -22.53879169 12.15071364 -16.23388672 5.14526367 C-10.68287427 0.86635824 -6.88251942 0.0236355 0 0 Z M18.76611328 20.14526367 C18.48413086 20.8805127 18.20214844 21.61576172 17.91162109 22.37329102 C16.61384872 25.75589591 15.31498785 29.13808186 14.01611328 32.52026367 C13.57267578 33.67655273 13.12923828 34.8328418 12.67236328 36.02416992 C10.36868642 42.02050528 8.04197744 48.00323752 5.60913086 53.94848633 C4.07836298 57.93743778 2.94069566 62.0405403 1.76611328 66.14526367 C1.20597103 68.02096938 0.64353466 69.89599179 0.07861328 71.77026367 C-0.35451172 73.21401367 -0.78763672 74.65776367 -1.23388672 76.14526367 C3.05611328 76.14526367 7.34611328 76.14526367 11.76611328 76.14526367 C12.08064453 75.16686523 12.39517578 74.1884668 12.71923828 73.18041992 C14.7862259 66.82264549 16.87453678 60.60525902 19.72314453 54.54760742 C21.64231435 50.12704774 23.14405835 45.54230212 24.71533203 40.98901367 C25.76611328 38.14526367 25.76611328 38.14526367 26.76611328 37.14526367 C28.94904102 36.91044674 31.13814502 36.73163045 33.32861328 36.58276367 C35.12492187 36.45708008 35.12492187 36.45708008 36.95751953 36.32885742 C37.88435547 36.26827148 38.81119141 36.20768555 39.76611328 36.14526367 C39.14723862 34.03928729 38.52079531 31.93553396 37.89111328 29.83276367 C37.54306641 28.66100586 37.19501953 27.48924805 36.83642578 26.28198242 C35.87845875 23.03614642 35.87845875 23.03614642 33.76611328 20.14526367 C31.13914265 19.92388974 28.75717364 19.86364342 26.14111328 19.95776367 C25.43470703 19.97129883 24.72830078 19.98483398 24.00048828 19.9987793 C22.255372 20.03415328 20.5106472 20.08796146 18.76611328 20.14526367 Z M30.16455078 45.21948242 C28.58097354 48.53260912 27.43537855 51.83103092 26.32861328 55.33276367 C24.59902874 60.72954294 22.70736715 65.98140093 20.46533203 71.19213867 C19.59758728 73.27025452 19.59758728 73.27025452 19.76611328 76.14526367 C23.39611328 76.14526367 27.02611328 76.14526367 30.76611328 76.14526367 C31.43643047 74.18817687 32.10226011 72.22955254 32.76611328 70.27026367 C33.13736328 69.1797168 33.50861328 68.08916992 33.89111328 66.96557617 C34.86488528 64.31905513 34.86488528 64.31905513 34.76611328 62.14526367 C35.75611328 62.47526367 36.74611328 62.80526367 37.76611328 63.14526367 C39.15283203 66.08666992 39.15283203 66.08666992 40.45361328 69.70776367 C40.89060547 70.90530273 41.32759766 72.1028418 41.77783203 73.33666992 C42.26703125 74.72692383 42.26703125 74.72692383 42.76611328 76.14526367 C46.39611328 76.14526367 50.02611328 76.14526367 53.76611328 76.14526367 C51.20278154 64.81263912 47.34889015 54.34826967 41.76611328 44.14526367 C37.72595973 42.1251869 33.01371517 41.52946707 30.16455078 45.21948242 Z " fill="#FBFAFB" transform="translate(94.23388671875,53.854736328125)"/>
<path d="M0 0 C0.495 6.93 0.495 6.93 1 14 C14.86 14.495 14.86 14.495 29 15 C32.08179083 22.39629799 34.83207295 29.11399276 36.8125 36.75 C37.13637695 37.9565625 37.13637695 37.9565625 37.46679688 39.1875 C37.98524463 41.12303827 38.49376598 43.06123143 39 45 C42.03641278 38.09597764 44.24533484 31.06007381 46.2487793 23.80297852 C47.18990437 20.45739132 48.0557463 17.91638055 50 15 C52.7885289 14.77892213 55.34653181 14.71892465 58.125 14.8125 C58.87910156 14.82603516 59.63320313 14.83957031 60.41015625 14.85351562 C62.27374127 14.88890015 64.13695978 14.94270833 66 15 C64.21167704 21.44087048 62.02657479 27.6331164 59.58203125 33.8515625 C57.88090277 38.24642511 56.31668042 42.68873033 54.73852539 47.12890625 C51.14341016 57.24329313 47.45667941 67.23025965 43 77 C42.34 77 41.68 77 41 77 C40.74605469 77.75667969 40.49210938 78.51335937 40.23046875 79.29296875 C38.10550411 83.96789097 34.70308886 86.12881111 30 88 C24.93513491 88.53849117 20.07955269 88.51184268 15 88 C14 87 14 87 13.90234375 84.27734375 C13.91394531 83.17519531 13.92554688 82.07304687 13.9375 80.9375 C13.94652344 79.83277344 13.95554687 78.72804688 13.96484375 77.58984375 C13.97644531 76.73519531 13.98804688 75.88054687 14 75 C17 74 17 74 19.3125 74.5625 C22.70843241 75.11532621 24.84127241 74.24879928 28 73 C28.144375 72.2575 28.28875 71.515 28.4375 70.75 C29 68 29 68 29.66796875 66.234375 C30.16108505 62.91599234 29.04818655 60.61913069 27.875 57.5 C27.64490234 56.88342529 27.41480469 56.26685059 27.17773438 55.6315918 C23.83335371 46.761465 20.09592013 38.0735995 16.11328125 29.47265625 C15.33750385 27.74961381 14.60899404 26.00484043 13.91796875 24.24609375 C13.19678778 22.0677748 13.19678778 22.0677748 12 21 C11.67 22.98 11.34 24.96 11 27 C7.7 27 4.4 27 1 27 C0.9730259 30.41671948 0.95317328 33.83322589 0.9375 37.25 C0.92912109 38.21808594 0.92074219 39.18617187 0.91210938 40.18359375 C0.90888672 41.11816406 0.90566406 42.05273438 0.90234375 43.015625 C0.89710693 43.87446289 0.89187012 44.73330078 0.88647461 45.61816406 C0.99460014 47.88670744 1.36417577 49.82631715 2 52 C3.299375 51.979375 4.59875 51.95875 5.9375 51.9375 C7.29165633 51.91600546 8.64756083 51.92851801 10 52 C11 53 11 53 11.09765625 55.72265625 C11.08605469 56.82480469 11.07445312 57.92695313 11.0625 59.0625 C11.05347656 60.16722656 11.04445313 61.27195313 11.03515625 62.41015625 C11.02355469 63.26480469 11.01195312 64.11945313 11 65 C7.87150741 66.56424629 4.55569916 66.18446398 1.125 66.1875 C0.40441406 66.19974609 -0.31617188 66.21199219 -1.05859375 66.22460938 C-4.86487912 66.23512398 -7.77513112 66.13584248 -11 64 C-11 63.34 -11 62.68 -11 62 C-11.66 62 -12.32 62 -13 62 C-18.11748779 55.30092642 -17.46427772 48.72565714 -17.25 40.5625 C-17.23195313 39.25861328 -17.21390625 37.95472656 -17.1953125 36.61132812 C-17.14835957 33.40679091 -17.08269464 30.2037811 -17 27 C-18.7015625 27.0309375 -18.7015625 27.0309375 -20.4375 27.0625 C-24 27 -24 27 -25 26 C-25.09823937 24.33570949 -25.12973631 22.66718069 -25.125 21 C-25.12757813 20.0925 -25.13015625 19.185 -25.1328125 18.25 C-25 16 -25 16 -24 15 C-21.66702567 14.95907063 -19.33294775 14.95758277 -17 15 C-17 11.37 -17 7.74 -17 4 C-15.10751181 3.32389577 -13.2108398 2.65949561 -11.3125 2 C-10.25675781 1.62875 -9.20101562 1.2575 -8.11328125 0.875 C-5 0 -5 0 0 0 Z " fill="#ECECEC" transform="translate(613,77)"/>
<path d="M0 0 C0.00879936 0.82232872 0.00879936 0.82232872 0.01777649 1.66127014 C0.08191437 7.38836428 0.16638565 13.11490706 0.26245117 18.84155273 C0.29562117 20.97624422 0.32367758 23.11102173 0.34643555 25.24584961 C0.38012717 28.32182331 0.43245103 31.39701426 0.48828125 34.47265625 C0.49467117 35.42084732 0.5010611 36.36903839 0.50764465 37.34596252 C0.63115859 42.96441704 1.30118056 47.03514775 4 52 C7.25733516 54.33568606 11.05481772 55.30556503 15.0390625 54.6796875 C17.82010117 53.65011148 19.74842673 52.29521918 21.66333008 50.0480957 C23.66038302 45.49408549 23.48033179 41.15352133 23.51171875 36.23046875 C23.52966995 35.19432938 23.54762115 34.15819 23.56611633 33.09065247 C23.62018686 29.78964271 23.65410523 26.48877731 23.6875 23.1875 C23.72067588 20.94594347 23.75516578 18.70440598 23.79101562 16.46289062 C23.87591141 10.97538986 23.94427514 5.48787034 24 0 C27.3653636 -1.12178787 30.0203755 -1.16771159 33.5625 -1.1875 C34.71878906 -1.20167969 35.87507812 -1.21585937 37.06640625 -1.23046875 C40 -1 40 -1 42 1 C42.20055665 3.95745375 42.27968211 6.81903905 42.265625 9.77734375 C42.26849518 11.09902306 42.26849518 11.09902306 42.27142334 12.44740295 C42.27278683 14.31951176 42.26907898 16.19162996 42.26074219 18.0637207 C42.25015917 20.89491824 42.26057189 23.72546444 42.2734375 26.55664062 C42.2947173 50.29005906 42.2947173 50.29005906 37.375 58.1875 C36.70597656 59.29158203 36.70597656 59.29158203 36.0234375 60.41796875 C35.68570313 60.94003906 35.34796875 61.46210938 35 62 C34.34 62 33.68 62 33 62 C33 62.66 33 63.32 33 64 C23.34896037 70.35833199 14.32933369 71.58372842 3 70 C-0.58288619 69.02963499 -3.76693698 67.81961336 -7 66 C-7 65.34 -7 64.68 -7 64 C-7.5775 63.79375 -8.155 63.5875 -8.75 63.375 C-12.96412015 60.79970435 -14.65331097 57.09996786 -16.10498047 52.49414062 C-17.33880488 47.25304759 -17.25015037 42.07713229 -17.1953125 36.71875 C-17.1924826 35.66465942 -17.18965271 34.61056885 -17.18673706 33.52453613 C-17.17560986 30.1829049 -17.15051904 26.84154919 -17.125 23.5 C-17.11496056 21.22396222 -17.1058364 18.94792022 -17.09765625 16.671875 C-17.075695 11.11449053 -17.04229229 5.55726496 -17 0 C-11.29736469 -1.90087844 -5.80069688 -0.99706439 0 0 Z " fill="#EBEAEA" transform="translate(728,73)"/>
<path d="M0 0 C0.78052734 0.00322266 1.56105469 0.00644531 2.36523438 0.00976562 C3.53022461 -0.0144043 3.53022461 -0.0144043 4.71875 -0.0390625 C10.45358318 -0.04400206 10.45358318 -0.04400206 12.56835938 1.58959961 C14.06362748 3.49547565 14.8103302 5.12723036 15.61914062 7.40820312 C16.06906372 8.65935913 16.06906372 8.65935913 16.52807617 9.93579102 C16.84558838 10.84707764 17.16310059 11.75836426 17.49023438 12.69726562 C18.00034058 14.12897095 18.00034058 14.12897095 18.52075195 15.58959961 C20.54731038 21.30503162 22.52338076 27.0379566 24.49804688 32.77148438 C24.71563156 33.40318542 24.93321625 34.03488647 25.15739441 34.68572998 C26.22310087 37.78265473 27.2839539 40.88105499 28.33813477 43.98193359 C30.71931726 50.95668224 33.25314249 57.83706615 36.00317383 64.67553711 C36.92773438 67.32226562 36.92773438 67.32226562 36.92773438 70.32226562 C30.98773438 70.32226562 25.04773438 70.32226562 18.92773438 70.32226562 C16.58461819 64.72902054 14.93364627 60.35773699 13.92773438 54.32226562 C6.33773437 54.65226562 -1.25226563 54.98226562 -9.07226562 55.32226562 C-9.71164063 57.42601562 -10.35101563 59.52976563 -11.00976562 61.69726562 C-12.94726562 68.07226562 -12.94726562 68.07226562 -14.07226562 70.32226562 C-19.68226563 70.32226562 -25.29226562 70.32226562 -31.07226562 70.32226562 C-29.94707111 61.32070954 -29.94707111 61.32070954 -28.83007812 58.22070312 C-28.57395752 57.49802246 -28.31783691 56.7753418 -28.05395508 56.03076172 C-27.77124756 55.26070801 -27.48854004 54.4906543 -27.19726562 53.69726562 C-26.89844482 52.86404785 -26.59962402 52.03083008 -26.29174805 51.17236328 C-25.22826351 48.21873939 -24.15051633 45.27053033 -23.07226562 42.32226562 C-22.3892948 40.4420462 -21.70633497 38.56182276 -21.02368164 36.68148804 C-19.81402004 33.35220479 -18.59999933 30.02451848 -17.38476562 26.69726562 C-17.15106262 26.05714539 -16.91735962 25.41702515 -16.67657471 24.75750732 C-14.45121842 18.67111784 -12.20824537 12.5910451 -9.86523438 6.54882812 C-9.56512451 5.77361816 -9.26501465 4.9984082 -8.95581055 4.19970703 C-6.90332785 -0.16160601 -4.49870052 0.0426969 0 0 Z M1.92773438 20.32226562 C-0.2765199 24.4907694 -1.90254691 28.5586034 -3.25976562 33.07226562 C-3.60394531 34.20148438 -3.948125 35.33070312 -4.30273438 36.49414062 C-5.15978346 39.15541306 -5.15978346 39.15541306 -5.07226562 41.32226562 C-2.3077453 42.70452579 -0.02612932 42.41751949 3.05273438 42.38476562 C4.1484375 42.37574219 5.24414062 42.36671875 6.37304688 42.35742188 C7.21609375 42.34582031 8.05914062 42.33421875 8.92773438 42.32226562 C8.51974112 34.29839837 6.01736624 27.6986192 2.92773438 20.32226562 C2.59773438 20.32226562 2.26773438 20.32226562 1.92773438 20.32226562 Z " fill="#F0EFEF" transform="translate(234.072265625,71.677734375)"/>
<path d="M0 0 C1.01964844 -0.02578125 2.03929687 -0.0515625 3.08984375 -0.078125 C7.64603502 0.4247923 11.19336773 2.697741 14.0625 6.25 C16.95657252 12.19892685 17.18963545 18.24025984 17.1953125 24.765625 C17.19626923 25.46266541 17.19722595 26.15970581 17.19821167 26.87786865 C17.19888817 28.34012951 17.19707112 29.80239346 17.19287109 31.26464844 C17.18748263 33.50722919 17.19285058 35.74961263 17.19921875 37.9921875 C17.19855851 39.41666711 17.19727847 40.84114659 17.1953125 42.265625 C17.19418457 43.55758789 17.19305664 44.84955078 17.19189453 46.18066406 C17.0625 49.25 17.0625 49.25 16.0625 51.25 C10.7825 51.25 5.5025 51.25 0.0625 51.25 C0.01351562 48.92582031 -0.03546875 46.60164063 -0.0859375 44.20703125 C-0.14000732 41.9464699 -0.19729112 39.68601115 -0.25488281 37.42553711 C-0.29307409 35.85920919 -0.32794394 34.29279651 -0.359375 32.72631836 C-0.40524071 30.469582 -0.46319769 28.21342417 -0.5234375 25.95703125 C-0.53498871 25.26100296 -0.54653992 24.56497467 -0.55844116 23.84785461 C-0.67712749 19.90368487 -1.21871304 16.81120596 -2.9375 13.25 C-5.9075 13.25 -8.8775 13.25 -11.9375 13.25 C-11.9375 13.91 -11.9375 14.57 -11.9375 15.25 C-12.5975 15.25 -13.2575 15.25 -13.9375 15.25 C-13.96255615 16.2694873 -13.9876123 17.28897461 -14.01342773 18.33935547 C-14.10747004 22.11520354 -14.20769837 25.89086627 -14.30981445 29.66650391 C-14.35317538 31.30187653 -14.39484961 32.93729477 -14.43481445 34.57275391 C-14.49248912 36.92103841 -14.55619129 39.26909304 -14.62109375 41.6171875 C-14.64616249 42.71726639 -14.64616249 42.71726639 -14.67173767 43.83956909 C-14.82362829 49.02225659 -14.82362829 49.02225659 -15.9375 51.25 C-18.41673801 51.27685095 -20.8956884 51.29676547 -23.375 51.3125 C-24.08205078 51.32087891 -24.78910156 51.32925781 -25.51757812 51.33789062 C-27.32443559 51.34653588 -29.13137603 51.30220011 -30.9375 51.25 C-31.9375 50.25 -31.9375 50.25 -32.05775452 48.26951599 C-32.05553391 47.40125687 -32.05331329 46.53299774 -32.05102539 45.63842773 C-32.05094986 44.65748642 -32.05087433 43.6765451 -32.05079651 42.6658783 C-32.04563522 41.5992244 -32.04047394 40.5325705 -32.03515625 39.43359375 C-32.0337413 38.3474025 -32.03232635 37.26121124 -32.03086853 36.1421051 C-32.02525048 32.65720925 -32.01269492 29.17237658 -32 25.6875 C-31.99498733 23.33138113 -31.99042402 20.97526126 -31.98632812 18.61914062 C-31.97527519 12.82940536 -31.95851951 7.03970719 -31.9375 1.25 C-29.31188891 1.16925797 -26.68874324 1.1096377 -24.0625 1.0625 C-22.94294922 1.02479492 -22.94294922 1.02479492 -21.80078125 0.98632812 C-19.6328125 0.95703125 -19.6328125 0.95703125 -15.9375 1.25 C-15.2775 2.24 -14.6175 3.23 -13.9375 4.25 C-13.36 3.775625 -12.7825 3.30125 -12.1875 2.8125 C-8.32164067 0.12787546 -4.63704257 0.07016962 0 0 Z " fill="#ECEBEB" transform="translate(537.9375,90.75)"/>
<path d="M0 0 C0 0.66 0 1.32 0 2 C0.598125 2.20625 1.19625 2.4125 1.8125 2.625 C5.92150383 5.20780241 6.87072685 9.48290739 8 14 C8 18.29 8 22.58 8 27 C-2.23 27 -12.46 27 -23 27 C-20.81940167 33.84825895 -20.81940167 33.84825895 -17 36 C-9.76560066 36.75276858 -3.39963672 36.57189026 3 33 C4.73749107 34.73749107 4.294321 37.01048482 4.375 39.375 C4.35546875 42.390625 4.35546875 42.390625 4 45 C1.6875 47.125 1.6875 47.125 -1 48 C-1.99 48.33 -2.98 48.66 -4 49 C-7.05754928 49.27643387 -10.11880412 49.27738906 -13.1875 49.3125 C-14.01314453 49.34150391 -14.83878906 49.37050781 -15.68945312 49.40039062 C-23.05887667 49.47588511 -28.07385876 47.39411556 -33.75 42.75 C-40.47737336 34.52765479 -40.98525936 27.18243869 -40.23632812 16.89648438 C-39.73158252 12.84600515 -38.31171831 10.33914867 -36 7 C-35.38125 6.0925 -34.7625 5.185 -34.125 4.25 C-25.64862276 -4.72498767 -10.65713201 -6.08978972 0 0 Z M-19.6875 9.6875 C-22.49402986 12.06644846 -22.49402986 12.06644846 -23 17 C-17.72 17 -12.44 17 -7 17 C-8.14525391 10.35962016 -8.14525391 10.35962016 -10.875 8.5625 C-14.50196484 7.60242107 -16.51043849 7.69260091 -19.6875 9.6875 Z " fill="#EBEBEB" transform="translate(451,94)"/>
<path d="M0 0 C6.02308412 5.17861047 8.35443424 10.14147835 9 18 C9.16096354 20.72296662 9.14909598 23.26657369 9 26 C8 27 8 27 5.04077148 27.11352539 C3.74727783 27.10828857 2.45378418 27.10305176 1.12109375 27.09765625 C0.09110008 27.09553383 0.09110008 27.09553383 -0.95970154 27.09336853 C-3.16067801 27.08775479 -5.36155409 27.07520007 -7.5625 27.0625 C-9.05143083 27.05748676 -10.54036324 27.05292355 -12.02929688 27.04882812 C-15.68623075 27.03778093 -19.34310558 27.02050713 -23 27 C-22.505 27.94875 -22.01 28.8975 -21.5 29.875 C-20 33 -20 33 -20 35 C-11.81013979 37.41795873 -3.64780581 36.52975653 4 33 C4 37.29 4 41.58 4 46 C-1.87870202 48.51848939 -6.62717232 49.49731323 -13 49.4375 C-14.13308594 49.4674707 -14.13308594 49.4674707 -15.2890625 49.49804688 C-22.38963741 49.49194672 -27.52875641 47.19666097 -32.8125 42.5 C-38.35204694 36.16908921 -39.14448557 32.1074458 -39.1875 23.625 C-39.20167969 22.35914062 -39.21585937 21.09328125 -39.23046875 19.7890625 C-38.687788 10.86702302 -35.40610307 5.92150855 -29 0 C-21.2477914 -5.22087518 -7.77230217 -5.18153478 0 0 Z M-21 11 C-21.66 12.98 -22.32 14.96 -23 17 C-17.39 17 -11.78 17 -6 17 C-7.6626814 11.03662948 -7.6626814 11.03662948 -12 8 C-16.3457707 8 -17.65856521 8.36202517 -21 11 Z " fill="#ECEBEB" transform="translate(360,94)"/>
<path d="M0 0 C0 4.62 0 9.24 0 14 C3.3 14 6.6 14 10 14 C10 17.96 10 21.92 10 26 C5.05 26.495 5.05 26.495 0 27 C0 34.92 0 42.84 0 51 C3.3 51.33 6.6 51.66 10 52 C10.02686553 53.97909398 10.04633375 55.95828971 10.0625 57.9375 C10.07410156 59.03964844 10.08570313 60.14179688 10.09765625 61.27734375 C10 64 10 64 9 65 C6.42090934 65.18145851 3.89413347 65.27820018 1.3125 65.3125 C0.24999023 65.35600586 0.24999023 65.35600586 -0.83398438 65.40039062 C-6.0180635 65.46261872 -8.95006128 64.49372396 -13 61 C-16.5152571 56.55464529 -17.49052714 53.71478353 -17.390625 48.0703125 C-17.37773437 46.78125 -17.36484375 45.4921875 -17.3515625 44.1640625 C-17.31814906 42.81769732 -17.28428937 41.47134315 -17.25 40.125 C-17.22991356 38.75523431 -17.21166655 37.38544034 -17.1953125 36.015625 C-17.1482806 32.67636014 -17.08255864 29.33854438 -17 26 C-19.64 26 -22.28 26 -25 26 C-25 22.04 -25 18.08 -25 14 C-22.36 14 -19.72 14 -17 14 C-17 10.37 -17 6.74 -17 3 C-15.1096624 2.29753005 -13.21243172 1.61359151 -11.3125 0.9375 C-10.25675781 0.55464844 -9.20101563 0.17179687 -8.11328125 -0.22265625 C-5 -1 -5 -1 0 0 Z " fill="#F0EFEF" transform="translate(397,78)"/>
<path d="M0 0 C0 4.95 0 9.9 0 15 C3.63 15 7.26 15 11 15 C11 18.3 11 21.6 11 25 C6.05 25.495 6.05 25.495 1 26 C1 34.25 1 42.5 1 51 C4.3 51 7.6 51 11 51 C12 52 12 52 12.09765625 54.72265625 C12.08605469 55.82480469 12.07445312 56.92695313 12.0625 58.0625 C12.05347656 59.16722656 12.04445313 60.27195313 12.03515625 61.41015625 C12.02355469 62.26480469 12.01195312 63.11945313 12 64 C8.87150741 65.56424629 5.55569916 65.18446398 2.125 65.1875 C1.40441406 65.19974609 0.68382812 65.21199219 -0.05859375 65.22460938 C-3.86487912 65.23512398 -6.77513112 65.13584248 -10 63 C-10 62.34 -10 61.68 -10 61 C-10.66 61 -11.32 61 -12 61 C-17.11748779 54.30092642 -16.46427772 47.72565714 -16.25 39.5625 C-16.23195313 38.25861328 -16.21390625 36.95472656 -16.1953125 35.61132812 C-16.14835957 32.40679091 -16.08269464 29.2037811 -16 26 C-17.7015625 26.0309375 -17.7015625 26.0309375 -19.4375 26.0625 C-23 26 -23 26 -24 25 C-24.09823937 23.33570949 -24.12973631 21.66718069 -24.125 20 C-24.12757813 19.0925 -24.13015625 18.185 -24.1328125 17.25 C-24 15 -24 15 -23 14 C-20.66702567 13.95907063 -18.33294775 13.95758277 -16 14 C-16 10.37 -16 6.74 -16 3 C-14.47375 2.505 -12.9475 2.01 -11.375 1.5 C-10.51648438 1.2215625 -9.65796875 0.943125 -8.7734375 0.65625 C-6 0 -6 0 0 0 Z " fill="#F3F3F3" transform="translate(612,78)"/>
<path d="M0 0 C0.79792969 -0.00773437 1.59585937 -0.01546875 2.41796875 -0.0234375 C3.19011719 -0.02085938 3.96226562 -0.01828125 4.7578125 -0.015625 C5.45277832 -0.01336914 6.14774414 -0.01111328 6.86376953 -0.00878906 C8.875 0.25 8.875 0.25 12.875 2.25 C12.875 6.54 12.875 10.83 12.875 15.25 C10.4 14.755 10.4 14.755 7.875 14.25 C0.05582734 13.57806968 0.05582734 13.57806968 -7.25 15.875 C-10.56294638 20.07139875 -11.34522086 23.61901235 -11 28.875 C-10.55778829 32.00206849 -10.19671599 33.15437868 -8.25 35.75 C-4.15978702 38.63720916 0.03233314 38.65750426 4.875 38.25 C7.61274618 37.32254351 7.61274618 37.32254351 9.875 36.25 C10.865 36.25 11.855 36.25 12.875 36.25 C13.00996251 38.35241603 13.10697307 40.4572961 13.1875 42.5625 C13.24550781 43.73425781 13.30351562 44.90601563 13.36328125 46.11328125 C12.875 49.25 12.875 49.25 10.90234375 51.140625 C6.89132097 52.61047077 3.36736653 52.74005874 -0.875 52.6875 C-1.67470215 52.68427734 -2.4744043 52.68105469 -3.29833984 52.67773438 C-9.41132149 52.53328421 -13.80799545 51.40081751 -19.125 48.25 C-19.125 47.59 -19.125 46.93 -19.125 46.25 C-19.72828125 46.00507813 -20.3315625 45.76015625 -20.953125 45.5078125 C-25.22240477 43.03531594 -26.70187739 38.81071577 -28.125 34.25 C-29.19149947 25.87036131 -29.18592798 17.77568334 -24.74609375 10.3046875 C-18.19531002 2.00176643 -10.16982503 -0.09954152 0 0 Z " fill="#EDEDED" transform="translate(302.125,90.75)"/>
<path d="M0 0 C5.61 0 11.22 0 17 0 C17.78605142 3.93025712 18.12633038 6.96837409 18.12939453 10.90429688 C18.13254669 12.06900513 18.13569885 13.23371338 18.13894653 14.43371582 C18.1369223 15.6827771 18.13489807 16.93183838 18.1328125 18.21875 C18.13424759 20.15470032 18.13424759 20.15470032 18.13571167 22.12976074 C18.1371827 24.85653892 18.13505322 27.58328425 18.13037109 30.31005859 C18.12467416 33.79688889 18.12795634 37.28364219 18.13394356 40.77046967 C18.1384356 44.10740254 18.13528612 47.44431494 18.1328125 50.78125 C18.13483673 52.03031128 18.13686096 53.27937256 18.13894653 54.56628418 C18.13579437 55.73099243 18.13264221 56.89570068 18.12939453 58.09570312 C18.12859894 59.11764771 18.12780334 60.13959229 18.12698364 61.19250488 C18.00463057 63.89762221 17.60814356 66.36550355 17 69 C14.35409986 69.02684679 11.70846904 69.04676357 9.0625 69.0625 C8.30775391 69.07087891 7.55300781 69.07925781 6.77539062 69.08789062 C4.85005687 69.09652441 2.92464419 69.05224333 1 69 C0 68 0 68 -0.12025452 65.29820251 C-0.11803391 64.09241043 -0.11581329 62.88661835 -0.11352539 61.64428711 C-0.11367142 60.98089828 -0.11381744 60.31750946 -0.1139679 59.63401794 C-0.11326881 57.43176044 -0.10547665 55.22958655 -0.09765625 53.02734375 C-0.09579206 51.50419664 -0.09436816 49.98104893 -0.09336853 48.457901 C-0.08954346 44.44162349 -0.07971328 40.42538192 -0.06866455 36.40911865 C-0.05845019 32.31376634 -0.05387086 28.21840824 -0.04882812 24.12304688 C-0.03809099 16.08201288 -0.02049429 8.04101505 0 0 Z " fill="#E3E2E1" transform="translate(782,73)"/>
<path d="M0 0 C1.2063366 5.22745859 0.75612577 9.76528314 0 15 C-0.59167969 14.96519531 -1.18335938 14.93039063 -1.79296875 14.89453125 C-6.68496554 14.72694245 -10.0796081 14.69216934 -14 18 C-15.0968325 21.29049749 -15.18955799 23.88311254 -15.28125 27.34765625 C-15.31863281 28.59224609 -15.35601562 29.83683594 -15.39453125 31.11914062 C-15.46494815 33.75195033 -15.53526034 36.38476285 -15.60546875 39.01757812 C-15.64285156 40.26087891 -15.68023437 41.50417969 -15.71875 42.78515625 C-15.76418945 44.50037476 -15.76418945 44.50037476 -15.81054688 46.25024414 C-16 49 -16 49 -17 51 C-22.28 51 -27.56 51 -33 51 C-33 34.5 -33 18 -33 1 C-27.72 1 -22.44 1 -17 1 C-16.34 1.66 -15.68 2.32 -15 3 C-14.195625 2.505 -13.39125 2.01 -12.5625 1.5 C-8.17997546 -0.34527349 -4.67684769 -0.28061086 0 0 Z " fill="#F2F1F1" transform="translate(500,91)"/>
<path d="M0 0 C2.64590014 -0.02684679 5.29153096 -0.04676357 7.9375 -0.0625 C8.69224609 -0.07087891 9.44699219 -0.07925781 10.22460938 -0.08789062 C12.14994313 -0.09652441 14.07535581 -0.05224333 16 0 C17.60051664 1.60051664 17.12731472 3.28846122 17.12939453 5.50390625 C17.13254669 6.46159912 17.13569885 7.41929199 17.13894653 8.40600586 C17.1369223 9.44764893 17.13489807 10.48929199 17.1328125 11.5625 C17.13424759 13.1549353 17.13424759 13.1549353 17.13571167 14.77954102 C17.13639364 17.02913472 17.13453819 19.27873037 17.13037109 21.52832031 C17.1250231 24.98507071 17.13031554 28.44169117 17.13671875 31.8984375 C17.13605797 34.07812529 17.13477682 36.257813 17.1328125 38.4375 C17.13483673 39.47914307 17.13686096 40.52078613 17.13894653 41.59399414 C17.13579437 42.55168701 17.13264221 43.50937988 17.12939453 44.49609375 C17.12859894 45.34357178 17.12780334 46.1910498 17.12698364 47.06420898 C17 49 17 49 16 50 C13.48863896 50.09975032 11.01096585 50.13882183 8.5 50.125 C7.79746094 50.12886719 7.09492187 50.13273437 6.37109375 50.13671875 C1.12661378 50.12661378 1.12661378 50.12661378 0 49 C-0.09319449 47.4651703 -0.117458 45.92607918 -0.11352539 44.38842773 C-0.11344986 43.40748642 -0.11337433 42.4265451 -0.11329651 41.4158783 C-0.10813522 40.3492244 -0.10297394 39.2825705 -0.09765625 38.18359375 C-0.0962413 37.0974025 -0.09482635 36.01121124 -0.09336853 34.8921051 C-0.08775048 31.40720925 -0.07519492 27.92237658 -0.0625 24.4375 C-0.05748733 22.08138113 -0.05292402 19.72526126 -0.04882812 17.36914062 C-0.03777519 11.57940536 -0.02101951 5.78970719 0 0 Z " fill="#ECEAEB" transform="translate(565,92)"/>
<path d="M0 0 C0.99 0 1.98 0 3 0 C5.03219488 3.40351338 5.36891039 6.3232927 5.625 10.25 C5.69976562 11.32765625 5.77453125 12.4053125 5.8515625 13.515625 C5.92503906 14.74539062 5.92503906 14.74539062 6 16 C3.03 16 0.06 16 -3 16 C-3 16.99 -3 17.98 -3 19 C0.96 19 4.92 19 9 19 C10.77997029 23.44992574 11.21222719 25.43711531 11 30 C9 27 9 27 8 24.875 C7.14139842 22.82955462 7.14139842 22.82955462 5 22 C3.62657169 21.9310528 2.24997898 21.91532292 0.875 21.9375 C-1.043125 21.9684375 -1.043125 21.9684375 -3 22 C-3.20753906 22.58523437 -3.41507813 23.17046875 -3.62890625 23.7734375 C-6.91024297 32.9172461 -10.45764475 41.9550536 -14 51 C-14.33 51 -14.66 51 -15 51 C-15.33 48.69 -15.66 46.38 -16 44 C-16.66 44 -17.32 44 -18 44 C-18.12375 44.7425 -18.2475 45.485 -18.375 46.25 C-18.95486701 48.80141485 -19.73708739 50.7267573 -21 53 C-21.66 53 -22.32 53 -23 53 C-21.33174666 46.10997809 -19.15219147 39.70788395 -16.33203125 33.20703125 C-14.37306651 28.49057948 -12.75185002 23.67158345 -11.11328125 18.8359375 C-10 16 -10 16 -8 14 C-4.01061087 13.41430021 -0.02813544 13.25711503 4 13 C2.68 8.71 1.36 4.42 0 0 Z " fill="#E4DEDF" transform="translate(129,76)"/>
<path d="M0 0 C4.24486463 1.51602308 5.82691978 4.16089161 8 8 C10.49217455 14.57789769 10.32302011 21.04802772 10.3359375 28.01953125 C10.3459227 29.90015511 10.3459227 29.90015511 10.35610962 31.81877136 C10.3662135 34.46567029 10.3717953 37.11215813 10.37060547 39.7590332 C10.3704429 42.45624603 10.38433584 45.15277986 10.41162109 47.84985352 C10.44841977 51.76078829 10.45808517 55.67094017 10.4609375 59.58203125 C10.47530853 60.77713821 10.48967957 61.97224518 10.50448608 63.2035675 C10.45952978 71.51684121 9.35517635 78.85190111 4 85.47265625 C3.34 85.99730469 2.68 86.52195312 2 87.0625 C1.34 87.61035156 0.68 88.15820312 0 88.72265625 C-3.96131501 91.25263674 -7.84809988 91.13002051 -12.46508789 91.14526367 C-13.77647232 91.15164352 -15.08785675 91.15802338 -16.4389801 91.16459656 C-17.86687178 91.16612493 -19.29476394 91.16723905 -20.72265625 91.16796875 C-22.18948906 91.17118277 -23.65632155 91.17454696 -25.12315369 91.17805481 C-28.19384505 91.18403602 -31.2645083 91.18589563 -34.33520508 91.18530273 C-38.27183086 91.18520091 -42.20827711 91.19887839 -46.14486027 91.21607494 C-49.17228527 91.22718376 -52.19966661 91.22922233 -55.22710991 91.22869301 C-56.67879292 91.22987384 -58.13047703 91.23430141 -59.58213997 91.24202538 C-61.60950529 91.2518066 -63.63692333 91.24768781 -65.66430664 91.24291992 C-66.8180629 91.24434494 -67.97181915 91.24576996 -69.16053772 91.24723816 C-72 91 -72 91 -75 89 C-41.835 89.495 -41.835 89.495 -8 90 C-8 89.34 -8 88.68 -8 88 C-4.535 87.505 -4.535 87.505 -1 87 C-1 86.01 -1 85.02 -1 84 C1.375 81.3125 1.375 81.3125 4 79 C4.66 79 5.32 79 6 79 C6.04634424 70.20300166 6.08187981 61.40604536 6.10362434 52.60895157 C6.11406072 48.5240879 6.12821724 44.43930778 6.15087891 40.35449219 C6.17261251 36.41228158 6.18456973 32.47015133 6.18975449 28.52788544 C6.19344931 27.02399175 6.20066437 25.52010245 6.21146011 24.01624298 C6.22598206 21.90949507 6.22797767 19.80307899 6.22705078 17.69628906 C6.231492 16.49715881 6.23593323 15.29802856 6.24050903 14.06256104 C6.00569904 11.07256964 5.68389646 9.44908893 4 7 C3.01 6.34 2.02 5.68 1 5 C0.3125 2.375 0.3125 2.375 0 0 Z " fill="#4B4A56" transform="translate(160,58)"/>
<path d="M0 0 C2.125 2.125 2.125 2.125 3 5 C2.93220153 8.8645127 2.56576361 11.17311472 0.375 14.375 C-2.82688528 16.56576361 -5.1354873 16.93220153 -9 17 C-11.92346557 15.63571607 -13.72750909 14.27249091 -16 12 C-16.68503937 4.92125984 -16.68503937 4.92125984 -14.1875 1.5625 C-9.65467046 -1.67523538 -5.20467508 -1.39307288 0 0 Z " fill="#DEDDDD" transform="translate(580,69)"/>
<path d="M0 0 C0.66 0.33 1.32 0.66 2 1 C1.38511719 1.68835937 1.38511719 1.68835937 0.7578125 2.390625 C0.21898438 3.00421875 -0.31984375 3.6178125 -0.875 4.25 C-1.40867187 4.85328125 -1.94234375 5.4565625 -2.4921875 6.078125 C-5.7028912 10.17052453 -6.25831362 13.21497144 -6.31884766 18.42089844 C-6.33871735 19.72194519 -6.35858704 21.02299194 -6.37905884 22.36346436 C-6.39093441 23.77876618 -6.40259732 25.1940698 -6.4140625 26.609375 C-6.43277797 28.06098528 -6.45235167 29.51258473 -6.4727478 30.96417236 C-6.52403522 34.77811287 -6.56367892 38.59208862 -6.60089111 42.40618896 C-6.64095212 46.30082904 -6.69203487 50.19532287 -6.7421875 54.08984375 C-6.83890659 61.7264621 -6.92332405 69.36315131 -7 77 C-7.33 77 -7.66 77 -8 77 C-8.76089428 69.74458471 -9.15906674 62.57888279 -9.16796875 55.28515625 C-9.17129715 54.30816269 -9.17462555 53.33116913 -9.17805481 52.3245697 C-9.18307774 50.27505966 -9.18546459 48.22554158 -9.18530273 46.17602539 C-9.18749217 43.07359144 -9.20570595 39.97151209 -9.22460938 36.86914062 C-9.30458855 9.25982924 -9.30458855 9.25982924 -3 2 C-2.01 1.34 -1.02 0.68 0 0 Z " fill="#696171" transform="translate(81,57)"/>
<path d="M0 0 C0.4375 2.125 0.4375 2.125 0 5 C-3.1303838 8.60468437 -6.2787529 11.10713891 -11 12 C-13.15338674 12.09706407 -15.30952642 12.138147 -17.46508789 12.14526367 C-18.77647232 12.15164352 -20.08785675 12.15802338 -21.4389801 12.16459656 C-22.86687178 12.16612493 -24.29476394 12.16723905 -25.72265625 12.16796875 C-27.18948906 12.17118277 -28.65632155 12.17454696 -30.12315369 12.17805481 C-33.19384505 12.18403602 -36.2645083 12.18589563 -39.33520508 12.18530273 C-43.27183086 12.18520091 -47.20827711 12.19887839 -51.14486027 12.21607494 C-54.17228527 12.22718376 -57.19966661 12.22922233 -60.22710991 12.22869301 C-61.67879292 12.22987384 -63.13047703 12.23430141 -64.58213997 12.24202538 C-66.60950529 12.2518066 -68.63692333 12.24768781 -70.66430664 12.24291992 C-72.39494102 12.24505745 -72.39494102 12.24505745 -74.16053772 12.24723816 C-77 12 -77 12 -80 10 C-46.835 10.495 -46.835 10.495 -13 11 C-13 10.34 -13 9.68 -13 9 C-9.535 8.505 -9.535 8.505 -6 8 C-6 7.01 -6 6.02 -6 5 C-1.46511628 0 -1.46511628 0 0 0 Z " fill="#898B90" transform="translate(165,137)"/>
<path d="M0 0 C1.65 0 3.3 0 5 0 C5.33 4.62 5.66 9.24 6 14 C19.86 14.495 19.86 14.495 34 15 C34 15.33 34 15.66 34 16 C28.72 16.33 23.44 16.66 18 17 C17.34 20.3 16.68 23.6 16 27 C12.7 27 9.4 27 6 27 C6 35.25 6 43.5 6 52 C4 50 4 50 3.75708008 47.67749023 C3.76118896 46.73075439 3.76529785 45.78401855 3.76953125 44.80859375 C3.77146484 43.78185547 3.77339844 42.75511719 3.77539062 41.69726562 C3.78763672 40.62154297 3.79988281 39.54582031 3.8125 38.4375 C3.81314453 37.35791016 3.81378906 36.27832031 3.81445312 35.16601562 C3.85985402 27.14014598 3.85985402 27.14014598 5 26 C8.33618231 25.85742811 11.65975606 25.95771843 15 26 C15 22.7 15 19.4 15 16 C11.37 16 7.74 16 4 16 C4 11.05 4 6.1 4 1 C2.68 0.67 1.36 0.34 0 0 Z " fill="#B8B6B6" transform="translate(608,77)"/>
<path d="M0 0 C1.36619834 2.73239668 1.10473937 4.87265663 1.08178711 7.9309082 C1.0752562 9.17592606 1.06872528 10.42094391 1.06199646 11.70368958 C1.05625547 12.37104441 1.05051449 13.03839924 1.04459953 13.72597694 C1.02722363 15.81522452 1.01691404 17.90439572 1.00868225 19.99369812 C0.98422039 25.93459307 0.9487457 31.87538556 0.90405273 37.81616211 C0.87721562 41.44944261 0.86020679 45.08266319 0.84918404 48.7160244 C0.84298755 50.09908443 0.83299886 51.48213298 0.81910515 52.8651371 C0.79981155 54.80365775 0.79403974 56.74229858 0.78881836 58.6809082 C0.78136093 59.78296097 0.7739035 60.88501373 0.76622009 62.02046204 C1.00686677 65.08751743 1.71118062 67.22585193 3 70 C3.28875 70.721875 3.5775 71.44375 3.875 72.1875 C5.26717858 74.43045437 6.66497417 74.87014879 9 76 C9.33 76.99 9.66 77.98 10 79 C4.97101246 77.56314642 3.04322498 75.05763331 0 71 C-1.42506348 68.14987305 -1.12728307 65.73283753 -1.12939453 62.54663086 C-1.13114685 61.8847023 -1.13289917 61.22277374 -1.13470459 60.54078674 C-1.13911264 58.34877923 -1.13618914 56.15685211 -1.1328125 53.96484375 C-1.13348576 52.44552088 -1.13445597 50.92619811 -1.13571167 49.40687561 C-1.13718716 46.22167943 -1.13503857 43.03651128 -1.13037109 39.85131836 C-1.12466904 35.75979099 -1.12795675 31.66832914 -1.13394356 27.57680416 C-1.13754906 24.4396566 -1.13641072 21.30252469 -1.13381577 18.16537666 C-1.13314672 16.65622513 -1.13397415 15.14707219 -1.13629532 13.63792229 C-1.1388222 11.53323448 -1.13498103 9.42865435 -1.12939453 7.32397461 C-1.12859894 6.12421494 -1.12780334 4.92445526 -1.12698364 3.68833923 C-1 1 -1 1 0 0 Z " fill="#BEB8C2" transform="translate(75,68)"/>
<path d="M0 0 C0.68707555 2.49064888 1 4.37886292 1 7 C1.99 7 2.98 7 4 7 C4.66 7 5.32 7 6 7 C4.46527032 11.72224516 2.76054874 16.35855331 1 21 C0.67 21 0.34 21 0 21 C-0.33 18.69 -0.66 16.38 -1 14 C-1.66 14 -2.32 14 -3 14 C-3.12375 14.7425 -3.2475 15.485 -3.375 16.25 C-3.95486701 18.80141485 -4.73708739 20.7267573 -6 23 C-6.66 23 -7.32 23 -8 23 C-6.05797655 14.97928527 -3.33160505 7.54549287 0 0 Z " fill="#C6C3C4" transform="translate(114,106)"/>
<path d="M0 0 C2 2 2 2 2.125 4.625 C2.08375 5.40875 2.0425 6.1925 2 7 C2.66 7 3.32 7 4 7 C4.33 6.01 4.66 5.02 5 4 C5.28571429 12.57142857 5.28571429 12.57142857 3 16 C2.34 16 1.68 16 1 16 C0.67 16.99 0.34 17.98 0 19 C0 18.34 0 17.68 0 17 C-0.99 16.67 -1.98 16.34 -3 16 C-2.88487847 14.27014758 -2.75744323 12.54111249 -2.625 10.8125 C-2.55539063 9.84957031 -2.48578125 8.88664062 -2.4140625 7.89453125 C-1.99784147 4.98491062 -1.20125904 2.67109226 0 0 Z " fill="#C3BFC0" transform="translate(117,97)"/>
<path d="M0 0 C1.16090149 0.02009628 2.32180298 0.04019257 3.5178833 0.06089783 C5.38993439 0.10145042 5.38993439 0.10145042 7.29980469 0.14282227 C8.5815155 0.16643326 9.86322632 0.19004425 11.18377686 0.21437073 C14.58360046 0.27706073 17.98326423 0.34616959 21.38293457 0.41662598 C24.85515086 0.48744612 28.32748005 0.55218108 31.79980469 0.61743164 C38.60721904 0.74624934 45.41448388 0.88185005 52.22167969 1.02172852 C52.22167969 1.35172852 52.22167969 1.68172852 52.22167969 2.02172852 C31.43167969 2.35172852 10.64167969 2.68172852 -10.77832031 3.02172852 C-9.77832031 1.02172852 -9.77832031 1.02172852 -8.07696533 0.39808655 C-5.3368622 -0.05055159 -2.77746558 -0.05434172 0 0 Z " fill="#D5D9DF" transform="translate(93.7783203125,53.978271484375)"/>
<path d="M0 0 C0.99 0 1.98 0 3 0 C5.96546426 4.9665499 5.63107029 10.34307771 6 16 C1.38 16.33 -3.24 16.66 -8 17 C-8.33 18.32 -8.66 19.64 -9 21 C-9.66 21 -10.32 21 -11 21 C-9.125 15.125 -9.125 15.125 -8 14 C-4.00897282 13.5361934 -0.00789032 13.29531823 4 13 C2.68 8.71 1.36 4.42 0 0 Z " fill="#9E9A9C" transform="translate(129,76)"/>
<path d="M0 0 C1.2063366 5.22745859 0.75612577 9.76528314 0 15 C-1.65 15 -3.3 15 -5 15 C-3.68 14.67 -2.36 14.34 -1 14 C-1 9.71 -1 5.42 -1 1 C-8.26831756 2.10126024 -11.13937903 3.54662038 -16 9 C-16.66 9 -17.32 9 -18 9 C-17.67 6.69 -17.34 4.38 -17 2 C-16.34 2.33 -15.68 2.66 -15 3 C-14.154375 2.525625 -13.30875 2.05125 -12.4375 1.5625 C-8.11588448 -0.40187069 -4.66199755 -0.27971985 0 0 Z " fill="#8B8B8B" transform="translate(500,91)"/>
<path d="M0 0 C1.58206057 0.00667536 3.16410534 0.0186375 4.74609375 0.03515625 C5.55240234 0.03966797 6.35871094 0.04417969 7.18945312 0.04882812 C9.18753131 0.06065107 11.18557158 0.07858711 13.18359375 0.09765625 C13.51359375 0.75765625 13.84359375 1.41765625 14.18359375 2.09765625 C13.0028125 2.10023437 11.82203125 2.1028125 10.60546875 2.10546875 C9.0481393 2.14299476 7.49084833 2.18214231 5.93359375 2.22265625 C4.76763672 2.21878906 4.76763672 2.21878906 3.578125 2.21484375 C1.29667044 2.2928422 -0.63123438 2.428794 -2.81640625 3.09765625 C-5.42052903 5.97831718 -5.42052903 5.97831718 -6.81640625 9.09765625 C-7.14640625 8.43765625 -7.47640625 7.77765625 -7.81640625 7.09765625 C-4.68351104 0.11984419 -4.68351104 0.11984419 0 0 Z " fill="#9A9999" transform="translate(231.81640625,71.90234375)"/>
<path d="M0 0 C0.68707555 2.49064888 1 4.37886292 1 7 C1.99 7 2.98 7 4 7 C4.66 7 5.32 7 6 7 C4.25 12.75 4.25 12.75 2 15 C2 13.02 2 11.04 2 9 C-0.97 11.475 -0.97 11.475 -4 14 C-4.33 13.34 -4.66 12.68 -5 12 C-4.26821134 9.92803369 -3.44100997 7.8891448 -2.5625 5.875 C-2.08941406 4.77929688 -1.61632812 3.68359375 -1.12890625 2.5546875 C-0.75636719 1.71164063 -0.38382812 0.86859375 0 0 Z " fill="#9E9C9D" transform="translate(114,106)"/>
<path d="M0 0 C0.66 0 1.32 0 2 0 C2.07427838 3.34252724 2.06546953 5.8035914 1 9 C-1.97 9 -4.94 9 -8 9 C-8.33 8.34 -8.66 7.68 -9 7 C-8.67 6.34 -8.34 5.68 -8 5 C-5.03 5 -2.06 5 1 5 C0.67 3.35 0.34 1.7 0 0 Z " fill="#F4F0F1" transform="translate(134,87)"/>
<path d="M0 0 C1.65 0 3.3 0 5 0 C5 2.31 5 4.62 5 7 C4.34 7 3.68 7 3 7 C2.67 7.99 2.34 8.98 2 10 C2 9.34 2 8.68 2 8 C1.01 7.67 0.02 7.34 -1 7 C-0.67 4.69 -0.34 2.38 0 0 Z " fill="#F2EFF0" transform="translate(115,106)"/>
<path d="M0 0 C0.4375 2.125 0.4375 2.125 0 5 C-2.98036069 8.68873628 -5.68233337 10.85625455 -10.4375 11.375 C-11.283125 11.25125 -12.12875 11.1275 -13 11 C-13 10.34 -13 9.68 -13 9 C-9.535 8.505 -9.535 8.505 -6 8 C-6 7.01 -6 6.02 -6 5 C-1.46511628 0 -1.46511628 0 0 0 Z " fill="#BCB9BC" transform="translate(165,137)"/>
<path d="M0 0 C4.875 4.625 4.875 4.625 6 8 C6.66 8.33 7.32 8.66 8 9 C8.66 9.33 9.32 9.66 10 10 C10.33 10.99 10.66 11.98 11 13 C6.12060824 11.60588807 3.89167771 9.09654343 1 5 C0.1875 2.125 0.1875 2.125 0 0 Z " fill="#AAA8AC" transform="translate(74,134)"/>
<path d="M0 0 C0.99 0.33 1.98 0.66 3 1 C2.34 1 1.68 1 1 1 C0.97421875 1.68707031 0.9484375 2.37414062 0.921875 3.08203125 C0.86515625 3.98308594 0.8084375 4.88414063 0.75 5.8125 C0.70359375 6.70582031 0.6571875 7.59914063 0.609375 8.51953125 C0 11 0 11 -2.046875 12.82421875 C-3.01367188 13.40623047 -3.01367188 13.40623047 -4 14 C-3.00956295 9.16371695 -2.04301154 4.52381127 0 0 Z " fill="#A69F9F" transform="translate(129,116)"/>
<path d="M0 0 C-1.65091778 4.29238623 -4.73754566 6.8793915 -8 10 C-8.66 9.67 -9.32 9.34 -10 9 C-9.23587913 7.87043002 -8.46340197 6.74651022 -7.6875 5.625 C-7.25824219 4.99851562 -6.82898438 4.37203125 -6.38671875 3.7265625 C-4.55585355 1.4470064 -3.02079342 0 0 0 Z " fill="#BEBDBE" transform="translate(424,94)"/>
<path d="M0 0 C0.99 0 1.98 0 3 0 C2.37321829 3.66172475 1.35548154 6.8818995 -0.0625 10.3125 C-0.42472656 11.19550781 -0.78695312 12.07851562 -1.16015625 12.98828125 C-1.43730469 13.65214844 -1.71445313 14.31601563 -2 15 C-2.33 15 -2.66 15 -3 15 C-3.2071567 11.27117943 -2.68590677 9.27264255 -1 6 C-0.61709538 4.00889599 -0.27395385 2.00899487 0 0 Z " fill="#B4B0B1" transform="translate(104,90)"/>
<path d="M0 0 C2.94586829 4.41880243 3.0985616 6.67767339 3 12 C2.690625 11.360625 2.38125 10.72125 2.0625 10.0625 C1.1654837 8.06389179 1.1654837 8.06389179 0 7 C-0.66 8.65 -1.32 10.3 -2 12 C-2.33 12 -2.66 12 -3 12 C-3.43200679 7.24792529 -1.98489083 4.21789302 0 0 Z " fill="#97918F" transform="translate(236,86)"/>
<path d="M0 0 C1.134375 0.020625 2.26875 0.04125 3.4375 0.0625 C1.59491754 1.99113714 0.08871023 2.98259594 -2.58007812 3.31005859 C-4.99677459 3.35755495 -7.39648212 3.32361304 -9.8125 3.25 C-10.65296875 3.23646484 -11.4934375 3.22292969 -12.359375 3.20898438 C-14.42735938 3.17373464 -16.49501271 3.1199302 -18.5625 3.0625 C-18.5625 2.7325 -18.5625 2.4025 -18.5625 2.0625 C-17.56347656 2.00191406 -16.56445312 1.94132813 -15.53515625 1.87890625 C-14.24480469 1.79511719 -12.95445312 1.71132812 -11.625 1.625 C-10.33722656 1.54378906 -9.04945313 1.46257812 -7.72265625 1.37890625 C-3.92668627 0.99884003 -3.958203 0.06944216 0 0 Z " fill="#918E8F" transform="translate(310.5625,139.9375)"/>
<path d="M0 0 C1.98 0.495 1.98 0.495 4 1 C4.33 4.3 4.66 7.6 5 11 C3 8 3 8 2 5.875 C1.14139842 3.82955462 1.14139842 3.82955462 -1 3 C-0.67 2.01 -0.34 1.02 0 0 Z " fill="#A8A4A6" transform="translate(135,95)"/>
<path d="M0 0 C0.66 0.33 1.32 0.66 2 1 C3.67654729 0.72057545 5.34608154 0.39171753 7 0 C6.04882866 1.1725131 5.08882991 2.33787015 4.125 3.5 C3.59132813 4.1496875 3.05765625 4.799375 2.5078125 5.46875 C2.01023437 5.9740625 1.51265625 6.479375 1 7 C0.34 7 -0.32 7 -1 7 C-0.67 4.69 -0.34 2.38 0 0 Z " fill="#B7B4B5" transform="translate(483,93)"/>
<path d="M0 0 C3.16115776 1.36983503 3.9927092 1.9890638 6 5 C6.125 7.6875 6.125 7.6875 6 10 C2.46413986 6.82679218 0.41421969 4.83256305 0 0 Z " fill="#A5A4A5" transform="translate(160,58)"/>
<path d="M0 0 C1.67542976 0.28604898 3.34385343 0.61781233 5 1 C4.01 1.33 3.02 1.66 2 2 C2 2.66 2 3.32 2 4 C1.34 4 0.68 4 0 4 C0 6.97 0 9.94 0 13 C-0.33 13 -0.66 13 -1 13 C-1.02686553 11.02090602 -1.04633375 9.04171029 -1.0625 7.0625 C-1.07410156 5.96035156 -1.08570313 4.85820312 -1.09765625 3.72265625 C-1 1 -1 1 0 0 Z " fill="#A0A09E" transform="translate(628,151)"/>
<path d="M0 0 C0.99 0 1.98 0 3 0 C3 0.99 3 1.98 3 3 C6.63 3 10.26 3 14 3 C14 3.33 14 3.66 14 4 C9.38 4 4.76 4 0 4 C0 2.68 0 1.36 0 0 Z " fill="#A5A3A4" transform="translate(111,127)"/>
<path d="M0 0 C0.33 0.66 0.66 1.32 1 2 C1.66 2 2.32 2 3 2 C4.99785435 6.1205746 5.17835515 9.45194365 5 14 C0 4.38461538 0 4.38461538 0 0 Z " fill="#9A9697" transform="translate(143,114)"/>
<path d="M0 0 C1.19882813 0.15275391 1.19882813 0.15275391 2.421875 0.30859375 C3.02515625 0.39238281 3.6284375 0.47617187 4.25 0.5625 C4.25 0.8925 4.25 1.2225 4.25 1.5625 C-0.51307437 2.51511487 -4.9166528 2.64583357 -9.75 2.5625 C-8.75 0.5625 -8.75 0.5625 -6.984375 -0.08984375 C-4.5100683 -0.47483203 -2.47863829 -0.32805507 0 0 Z " fill="#A3A4A7" transform="translate(92.75,54.4375)"/>
<path d="M0 0 C1 2 1 2 0.44140625 4.1640625 C0.15136719 4.97617188 -0.13867188 5.78828125 -0.4375 6.625 C-0.72496094 7.44226563 -1.01242188 8.25953125 -1.30859375 9.1015625 C-1.53675781 9.72804688 -1.76492187 10.35453125 -2 11 C-2.33 11 -2.66 11 -3 11 C-3.75 8.3125 -3.75 8.3125 -4 5 C-2.0625 2.125 -2.0625 2.125 0 0 Z " fill="#AFABAC" transform="translate(110,79)"/>
<path d="M0 0 C0.33 0.66 0.66 1.32 1 2 C3.8159849 2.46898963 3.8159849 2.46898963 7.0625 2.625 C8.71958984 2.73714844 8.71958984 2.73714844 10.41015625 2.8515625 C11.26480469 2.90054688 12.11945313 2.94953125 13 3 C13 3.33 13 3.66 13 4 C8.38 4 3.76 4 -1 4 C-0.67 2.68 -0.34 1.36 0 0 Z " fill="#A9A7A8" transform="translate(228,111)"/>
<path d="M0 0 C0.99 0 1.98 0 3 0 C4.0625 1.8125 4.0625 1.8125 5 4 C4.67 4.99 4.34 5.98 4 7 C3.34 7 2.68 7 2 7 C1.34 4.69 0.68 2.38 0 0 Z " fill="#BCB7B8" transform="translate(129,76)"/>
<path d="M0 0 C0.66 0.33 1.32 0.66 2 1 C0.02 3.31 -1.96 5.62 -4 8 C-4.33 7.01 -4.66 6.02 -5 5 C-3.35 3.35 -1.7 1.7 0 0 Z " fill="#818084" transform="translate(81,57)"/>
<path d="M0 0 C0.98120464 3.05263664 0.98120464 4.94736336 0 8 C-0.66 8 -1.32 8 -2 8 C-2 5.69 -2 3.38 -2 1 C-1.34 0.67 -0.68 0.34 0 0 Z " fill="#AFACA9" transform="translate(653,121)"/>
</svg>
