<?xml version="1.0" encoding="UTF-8"?>
<svg version="1.1" xmlns="http://www.w3.org/2000/svg" width="5906" height="2271">
<path d="M0 0 C63.36 0 126.72 0 192 0 C192.02187378 21.38119629 192.02187378 21.38119629 192.04418945 43.19433594 C192.07680203 73.70364244 192.11328935 104.21293915 192.15898132 134.722229 C192.15997689 135.38768346 192.16097246 136.05313791 192.16199819 136.73875765 C192.18366058 151.203536 192.20598356 165.66831325 192.22898628 180.13308953 C192.24026404 187.22739803 192.25139595 194.32170677 192.26245117 201.41601562 C192.26355374 202.12195588 192.2646563 202.82789614 192.26579228 203.55522852 C192.30141212 226.40528516 192.3274149 249.25534035 192.34838969 272.10541473 C192.37000887 295.60183463 192.40141176 319.09822187 192.44499113 342.59461178 C192.4730352 357.72605141 192.49260205 372.85744513 192.49934604 387.98890963 C192.50461614 397.91745259 192.52088746 407.84594022 192.54566566 417.77445349 C192.55962509 423.49631102 192.56887232 429.21806962 192.56500816 434.93994522 C192.56156949 440.19134292 192.57212469 445.4425302 192.59323552 450.69388488 C192.59845486 452.58116582 192.59879025 454.46846889 192.59339563 456.35574934 C192.55203345 472.48473426 193.76789562 488.78543536 198.6875 504.25 C198.94096191 505.06662109 199.19442383 505.88324219 199.45556641 506.72460938 C207.74621653 532.28786169 224.05772125 553.24323991 247.6015625 566.34375 C264.87094828 574.76009434 283.7892203 579.43425361 303 580 C304.07894531 580.03996094 305.15789062 580.07992187 306.26953125 580.12109375 C338.24810147 580.74239169 369.78115734 571.81853864 393.44775391 549.55224609 C418.03404824 524.96595176 426.1995834 490.36218982 426.28433573 456.607162 C426.28255983 454.80308991 426.28059907 452.999018 426.2784729 451.19494629 C426.28348613 449.23835411 426.2893649 447.28176398 426.29602563 445.32517672 C426.31171541 439.99117426 426.31525019 434.65722463 426.31667423 429.32320189 C426.32038768 423.55517967 426.33555273 417.78718578 426.34928894 412.0191803 C426.37150478 402.03980307 426.38655212 392.06043599 426.39665604 382.08103943 C426.41127488 367.65271531 426.43682063 353.2244266 426.46498732 338.79612333 C426.51057194 315.38411159 426.54705291 291.97209372 426.578125 268.56005859 C426.60831999 245.8246979 426.64267287 223.08934965 426.68261719 200.35400391 C426.68384819 199.65240799 426.68507919 198.95081207 426.6863475 198.22795568 C426.69871504 191.18182809 426.7111667 184.13570066 426.72367998 177.08957333 C426.74916591 162.73757284 426.77409059 148.3855714 426.79867554 134.03356934 C426.80093357 132.71563651 426.80319161 131.39770368 426.80551808 130.03983349 C426.87953846 86.69323545 426.93943252 43.34661899 427 0 C490.69 0 554.38 0 620 0 C620.06623841 90.6487975 620.06623841 90.6487975 620.08468628 135.52752686 C620.08496239 136.1975158 620.08523851 136.86750475 620.08552299 137.55779639 C620.0915106 152.12296276 620.0970507 166.68812926 620.10213066 181.25329597 C620.10462505 188.39737964 620.1072182 195.54146326 620.10986328 202.68554688 C620.1101248 203.39642043 620.11038632 204.10729398 620.11065576 204.83970916 C620.1191589 227.82786553 620.1341668 250.81601198 620.15259444 273.80416236 C620.17151688 297.452853 620.1837841 321.10153818 620.18782998 344.75023626 C620.19044822 359.97282162 620.19877381 375.19538279 620.21583293 390.41795966 C620.22646141 400.41568344 620.22958745 410.41339263 620.22700275 420.41112164 C620.22573053 426.16636718 620.22758435 431.92156319 620.23841095 437.67679977 C620.33748121 493.07703 620.33748121 493.07703 616.25 520.125 C616.08081055 521.26565918 615.91162109 522.40631836 615.73730469 523.58154297 C609.0513067 566.67238433 594.76844426 610.39747599 569 646 C567.95972656 647.44826172 567.95972656 647.44826172 566.8984375 648.92578125 C555.24114536 664.8052375 542.10023691 680.29765479 527 693 C526.47100098 693.44666016 525.94200195 693.89332031 525.39697266 694.35351562 C475.55790116 736.14764196 413.07344415 756.76524399 349 763 C348.09443359 763.09571289 347.18886719 763.19142578 346.25585938 763.29003906 C334.57924065 764.37524114 322.84145885 764.24387084 311.125 764.25 C309.38790771 764.25101212 309.38790771 764.25101212 307.61572266 764.25204468 C229.4831283 764.17984463 144.12150023 743.10976862 86.76513672 686.72998047 C84.74663539 684.75168166 82.70247336 682.80135036 80.66015625 680.84765625 C70.72624752 671.24211519 61.94913694 661.29940734 54 650 C53.49807129 649.29439941 52.99614258 648.58879883 52.47900391 647.86181641 C25.90410019 610.23748207 10.68270533 566.77739284 3.75 521.4375 C3.59885742 520.45990723 3.44771484 519.48231445 3.29199219 518.47509766 C2.79626395 514.98989312 2.39189939 511.49799736 2 508 C1.91648796 507.27890867 1.83297593 506.55781735 1.74693322 505.81487477 C-0.70229694 483.69974191 -0.27336224 461.47894892 -0.23213124 439.26409543 C-0.22340474 433.35514108 -0.22642333 427.44619043 -0.22793579 421.53723145 C-0.22897889 411.32718282 -0.22276287 401.11715998 -0.21146011 390.90711784 C-0.19962902 380.2127961 -0.19191856 369.51848751 -0.18975449 358.82415962 C-0.18961701 358.15627262 -0.18947953 357.48838561 -0.18933788 356.80025961 C-0.18866111 353.40764189 -0.18805838 350.01502417 -0.18748413 346.62240643 C-0.1832965 322.66631411 -0.16985887 298.71023518 -0.15087891 274.75415039 C-0.13247514 251.49829173 -0.11832507 228.24243676 -0.10986328 204.98657227 C-0.10960023 204.26823141 -0.10933718 203.54989056 -0.10906615 202.80978181 C-0.10642884 195.59513017 -0.10387726 188.38047849 -0.10138843 181.1658268 C-0.09631762 166.47208767 -0.09067512 151.77834877 -0.08468628 137.08460999 C-0.0844117 136.40919108 -0.08413712 135.73377218 -0.08385422 135.03788604 C-0.06548964 90.02525064 -0.03251219 45.01262785 0 0 Z " fill="#FFFFFF" transform="translate(4137,771)"/>
<path d="M0 0 C1.34360596 0.19335938 1.34360596 0.19335938 2.71435547 0.390625 C45.08486216 6.67528041 86.30249407 22.09984505 120 49 C121.39798828 50.10988281 121.39798828 50.10988281 122.82421875 51.2421875 C139.90694727 65.01320157 156.74559878 80.44396755 170 98 C170.79019531 98.99644531 171.58039063 99.99289062 172.39453125 101.01953125 C211.91027066 150.96430861 232.88817841 214.47281473 234 278 C234.02046387 278.96728027 234.04092773 279.93456055 234.06201172 280.93115234 C235.02967396 333.43282702 226.42053872 385.63071467 203 433 C202.60844727 433.7955127 202.21689453 434.59102539 201.81347656 435.41064453 C195.98431493 447.1323793 189.37861467 458.19215271 182 469 C181.5771875 469.62245605 181.154375 470.24491211 180.71875 470.88623047 C174.67248686 479.73125213 168.04165521 487.93211907 161 496 C160.38511719 496.71542969 159.77023437 497.43085937 159.13671875 498.16796875 C157.44261808 500.1289206 155.72634268 502.0673648 154 504 C152.75283203 505.40378906 152.75283203 505.40378906 151.48046875 506.8359375 C145.66413381 513.3236661 139.62969134 519.32748294 133 525 C132.11054688 525.77730469 131.22109375 526.55460937 130.3046875 527.35546875 C118.0687127 537.84106568 104.79539994 547.0009108 90.79882812 554.97509766 C89.06199601 555.96467708 87.33545982 556.97226022 85.609375 557.98046875 C36.2773179 585.68827212 -29.51431175 594.89515965 -85 584 C-86.04704102 583.79600586 -87.09408203 583.59201172 -88.17285156 583.38183594 C-128.58452447 575.25216704 -168.49185243 557.50814757 -198 528 C-198.495 664.125 -198.495 664.125 -199 803 C-258.4 803 -317.8 803 -379 803 C-379 541.97 -379 280.94 -379 12 C-320.59 12 -262.18 12 -202 12 C-201.67 28.5 -201.34 45 -201 62 C-198.03 59.03 -195.06 56.06 -192 53 C-189.78956559 51.12000425 -187.61303823 49.31602825 -185.3125 47.5625 C-184.71638916 47.10351318 -184.12027832 46.64452637 -183.50610352 46.17163086 C-181.67734979 44.77212594 -179.83948632 43.38535378 -178 42 C-177.4524707 41.58105469 -176.90494141 41.16210938 -176.34082031 40.73046875 C-147.4326031 18.69516706 -113.66400645 5.90952882 -78 0 C-76.95682617 -0.17789063 -76.95682617 -0.17789063 -75.89257812 -0.359375 C-51.5997775 -4.27982697 -24.28447499 -3.58112074 0 0 Z M-158 195 C-158.79792969 195.65226562 -159.59585938 196.30453125 -160.41796875 196.9765625 C-185.48054682 218.25385454 -198.41513835 249.87512497 -201.53125 282.03515625 C-204.41380992 318.73735037 -193.01522194 353.4058092 -169.34228516 381.44238281 C-149.18282014 404.83586895 -120.26828354 418.92251166 -89.62597656 421.80517578 C-54.20500238 424.43309856 -21.57134368 416.27856656 5.99609375 393.52734375 C30.93707737 371.69965906 47.56815608 339.11560131 50 306 C50.67190932 291.12276366 50.26186535 276.5574632 47 262 C46.8443457 261.30036133 46.68869141 260.60072266 46.52832031 259.87988281 C42.29346667 241.78243441 33.85515863 224.31953119 22 210 C21.54399414 209.44908691 21.08798828 208.89817383 20.61816406 208.33056641 C-0.79898727 182.95190356 -31.04193115 168.44820434 -63.9140625 165.3125 C-98.02824155 162.50290921 -131.9489474 172.74361791 -158 195 Z " fill="#FFFFFF" transform="translate(5221,949)"/>
<path d="M0 0 C0.58910156 0.44037598 1.17820312 0.88075195 1.78515625 1.33447266 C5.5654177 4.17072586 9.29386218 7.06719015 13 10 C14.38058594 11.08861328 14.38058594 11.08861328 15.7890625 12.19921875 C33.5767531 26.47550645 51.21835485 42.79387875 65 61 C66.35367347 62.72955279 67.70781458 64.45873971 69.0625 66.1875 C70.04312995 67.45720454 71.02290302 68.72757467 72 70 C70.5158627 73.48654476 68.53785948 75.64191072 65.8125 78.25 C62.9973201 80.99825803 60.28962656 83.74572999 57.75 86.75 C54.51661012 90.52732462 51.03298931 94.00681902 47.5 97.5 C44.05061278 100.91069527 40.63880034 104.2962156 37.5 108 C33.8354347 112.32418706 29.78479134 116.24082291 25.7578125 120.22265625 C22.89425883 123.06641577 20.1112281 125.91875084 17.5 129 C13.8354347 133.32418706 9.78479134 137.24082291 5.7578125 141.22265625 C2.89425883 144.06641577 0.1112281 146.91875084 -2.5 150 C-6.1645653 154.32418706 -10.21520866 158.24082291 -14.2421875 162.22265625 C-17.10574117 165.06641577 -19.8887719 167.91875084 -22.5 171 C-26.15767714 175.31605902 -30.19751117 179.22949471 -34.22241211 183.19848633 C-37.86854194 186.81176337 -41.30757786 190.51363093 -44.53515625 194.51171875 C-46.20546813 196.20875562 -47.86290531 196.98435375 -50 198 C-50.56396484 197.43079834 -51.12792969 196.86159668 -51.70898438 196.27514648 C-54.30326769 193.65988156 -56.90159923 191.04867381 -59.5 188.4375 C-60.386875 187.54224609 -61.27375 186.64699219 -62.1875 185.72460938 C-67.29374633 180.59959008 -72.48969539 175.68618503 -78 171 C-78.98742188 170.13117188 -79.97484375 169.26234375 -80.9921875 168.3671875 C-131.3391272 124.84232635 -192.78088707 101.76872924 -259.45800781 106.23144531 C-299.13875563 109.71999817 -337.75604883 124.87779085 -368 151 C-368.77988281 151.6703125 -369.55976562 152.340625 -370.36328125 153.03125 C-372.95259175 155.31083437 -375.48323744 157.6405351 -378 160 C-378.74056641 160.68956787 -378.74056641 160.68956787 -379.49609375 161.39306641 C-392.47070008 173.57091542 -403.25042039 187.49574494 -412 203 C-412.38220703 203.6609668 -412.76441406 204.32193359 -413.15820312 205.00292969 C-424.39481332 224.5646037 -431.79380338 245.86167984 -436 268 C-436.16226074 268.81887695 -436.32452148 269.63775391 -436.49169922 270.48144531 C-441.56210544 297.22012 -441.4848661 328.34443781 -436 355 C-435.80132324 355.96566895 -435.60264648 356.93133789 -435.39794922 357.92626953 C-428.21672894 391.48704355 -413.61497472 422.09012831 -391 448 C-390.34161133 448.75893555 -390.34161133 448.75893555 -389.66992188 449.53320312 C-367.02942244 475.44854532 -337.60780423 494.20224027 -305 505 C-303.88044922 505.3724585 -303.88044922 505.3724585 -302.73828125 505.75244141 C-285.27661149 511.4071069 -266.34107726 514.50719068 -248 515 C-247.35675781 515.02046387 -246.71351563 515.04092773 -246.05078125 515.06201172 C-184.21972912 516.81659833 -124.64002949 493.83781576 -79.22265625 452.0390625 C-77.20437897 450.18749705 -75.14650865 448.40167 -73.0625 446.625 C-63.50712374 438.28822436 -54.80353808 428.98852874 -47 419 C-43.44519997 420.50841813 -41.20440378 422.57633661 -38.515625 425.32421875 C-37.66226563 426.18853516 -36.80890625 427.05285156 -35.9296875 427.94335938 C-35.04539062 428.84892578 -34.16109375 429.75449219 -33.25 430.6875 C-27.96408857 436.07928651 -22.68929571 441.36144689 -16.95214844 446.27270508 C-12.53651173 450.1797373 -8.48472442 454.47912395 -4.35546875 458.68359375 C-0.99671876 462.07918561 2.37852424 465.38417769 6 468.5 C11.16560744 472.94435252 15.87292293 477.82507088 20.64453125 482.68359375 C24.63538702 486.7182249 28.71652009 490.53971738 33.01757812 494.24023438 C37.21240607 497.96391909 41.07416927 502.03655539 45 506.0390625 C48.22462531 509.30147639 51.47418425 512.46161354 54.953125 515.453125 C59.45096468 519.32663111 63.5918764 523.51801985 67.75 527.75 C69.22156022 529.24715257 70.69543684 530.74203266 72.171875 532.234375 C72.8122168 532.88631836 73.45255859 533.53826172 74.11230469 534.20996094 C75.97791823 535.97906059 77.91346328 537.5013505 80 539 C79.0215433 544.76637149 74.64499346 548.65158675 71 553 C70.22269531 553.96421875 69.44539063 554.9284375 68.64453125 555.921875 C61.88932974 564.17751565 54.45597444 571.75906263 46.9375 579.3125 C46.430979 579.82419739 45.92445801 580.33589478 45.40258789 580.86309814 C38.60520172 587.71516014 31.56305184 593.98487299 24 600 C22.97243943 600.86337571 21.94903936 601.73178251 20.93359375 602.609375 C-4.91057105 624.77307189 -34.73421644 641.70210349 -65 657 C-66.11640869 657.56630127 -66.11640869 657.56630127 -67.25537109 658.14404297 C-124.26815719 686.79172331 -188.32463605 697.21408504 -251.5625 697.3125 C-253.25342773 697.31801376 -253.25342773 697.31801376 -254.97851562 697.32363892 C-276.58666988 697.3604531 -298.01818686 696.12097818 -319.375 692.75 C-320.06001587 692.64328979 -320.74503174 692.53657959 -321.45080566 692.42663574 C-395.16159664 680.88492776 -462.58434854 649.23854234 -517.74609375 599.03515625 C-519.76099039 597.21581284 -521.80894881 595.44809804 -523.875 593.6875 C-532.19801974 586.42807102 -539.86121356 578.41515989 -547 570 C-547.85722656 569.03191406 -548.71445313 568.06382812 -549.59765625 567.06640625 C-619.50412657 487.78252603 -642.35537462 382.67479395 -636.64039612 279.39006042 C-633.18628703 224.51768241 -618.49287987 170.69046846 -593 122 C-592.63712891 121.30471191 -592.27425781 120.60942383 -591.90039062 119.89306641 C-579.15734278 95.69553192 -563.03027265 73.51790802 -545 53 C-543.81664062 51.64841797 -543.81664062 51.64841797 -542.609375 50.26953125 C-536.45481354 43.40855 -529.98815295 36.8565558 -523.5 30.3125 C-522.63391113 29.43335938 -521.76782227 28.55421875 -520.87548828 27.6484375 C-515.64532802 22.41138638 -510.23247439 17.59405072 -504.45556641 12.9675293 C-502.50428634 11.40406081 -500.59569099 9.81815574 -498.71484375 8.171875 C-416.28421643 -63.70855951 -302.95825591 -87.05298629 0 0 Z " fill="#FFFFFF" transform="translate(2339,836)"/>
<path d="M0 0 C59.07 0 118.14 0 179 0 C179.33 123.42 179.66 246.84 180 374 C182.97 371.03 185.94 368.06 189 365 C192.9375 361.5625 192.9375 361.5625 194.91015625 359.8671875 C199.12350971 356.10273338 203.03639769 352.02365689 207 348 C212.18179994 342.73968794 217.37060882 337.60749253 222.9765625 332.80078125 C226.99813052 329.22174099 230.72516986 325.33542131 234.5 321.5 C243.4536549 312.40262672 243.4536549 312.40262672 247.96875 308.53125 C252.91167665 304.28811954 257.43106357 299.63816274 262 295 C267.18179994 289.73968794 272.37060882 284.60749253 277.9765625 279.80078125 C281.99813052 276.22174099 285.72516986 272.33542131 289.5 268.5 C298.4536549 259.40262672 298.4536549 259.40262672 302.96875 255.53125 C307.91167665 251.28811954 312.43106357 246.63816274 317 242 C327.35899683 231.48404867 327.35899683 231.48404867 332.81276989 227.03149891 C335.11487143 225.01148481 335.11487143 225.01148481 337.04908466 222.28975201 C340.92571073 217.47896835 344.21899001 213.98913014 350.51349449 212.99926186 C356.15420812 212.50311945 361.78915019 212.63761986 367.4440918 212.7512207 C369.61317282 212.75432707 371.7822654 212.7525749 373.95133972 212.74635315 C379.81516173 212.74320746 385.67648948 212.80770143 391.53973365 212.88466668 C397.67616481 212.95360991 403.81265841 212.95990667 409.94941711 212.97294617 C421.55895413 213.0070836 433.16734652 213.0972795 444.77638036 213.20779055 C457.99750351 213.33090537 471.21868242 213.3912635 484.44023645 213.44644034 C511.62745795 213.56130077 538.81366473 213.75467966 566 214 C565.04232343 215.12524707 564.08351866 216.24953401 563.12423706 217.37341309 C562.59042356 217.99960289 562.05661007 218.62579269 561.50662041 219.27095795 C559.84655358 221.17609965 558.10839533 222.9359754 556.2578125 224.65625 C555.25995728 225.58932983 555.25995728 225.58932983 554.24194336 226.54125977 C553.54335205 227.18764404 552.84476074 227.83402832 552.125 228.5 C551.01233765 229.53821899 551.01233765 229.53821899 549.87719727 230.59741211 C548.33921803 232.03234853 546.79990549 233.4658572 545.25927734 234.89794922 C542.46795982 237.49501469 539.68735945 240.1033447 536.90771484 242.71289062 C534.92788887 244.57152279 532.9465931 246.42857514 530.96484375 248.28515625 C527.64327003 251.39713597 524.32243023 254.50989712 521.00195312 257.62304688 C519.00268529 259.49748238 517.00329586 261.37178814 515.00390625 263.24609375 C512.323792 265.75865995 509.64414939 268.27172781 506.96484375 270.78515625 C499.86597102 277.44378881 492.75963107 284.09423635 485.64208984 290.73291016 C479.08916039 296.84657542 472.55231303 302.9773465 466.01611328 309.10888672 C462.01241182 312.86435675 458.00729349 316.61831569 454.00244141 320.37255859 C450.65610788 323.50959298 447.31011671 326.64699088 443.96484375 329.78515625 C436.86597102 336.44378881 429.75963107 343.09423635 422.64208984 349.73291016 C416.08916039 355.84657542 409.55231303 361.9773465 403.01611328 368.10888672 C399.01241182 371.86435675 395.00729349 375.61831569 391.00244141 379.37255859 C387.65610788 382.50959298 384.31011671 385.64699088 380.96484375 388.78515625 C373.86974842 395.44024567 366.76825229 402.08830358 359.65307617 408.72192383 C356.3934959 411.76199798 353.13862455 414.80692763 349.890625 417.859375 C342.31984715 424.97387829 334.72070283 432.04809597 327 439 C328.43496071 443.32056476 330.58811707 446.14126142 333.5625 449.5625 C337.73401645 454.43827895 341.63697469 459.4467021 345.45703125 464.60546875 C348.55303192 468.76575896 351.74801354 472.84873186 354.9375 476.9375 C361.44393439 485.28146395 367.9028371 493.66003102 374.34375 502.0546875 C379.20739731 508.38690364 384.09480199 514.69990277 389 521 C395.48221026 529.32556705 401.92074055 537.68336518 408.34375 546.0546875 C413.20739731 552.38690364 418.09480199 558.69990277 423 565 C429.48221026 573.32556705 435.92074055 581.68336518 442.34375 590.0546875 C447.20739731 596.38690364 452.09480199 602.69990277 457 609 C463.48221026 617.32556705 469.92074055 625.68336518 476.34375 634.0546875 C481.81125466 641.17309455 487.31249914 648.26448813 492.82714844 655.34643555 C497.03039666 660.74661635 501.20793305 666.165597 505.375 671.59375 C508.56627991 675.74241389 511.78424136 679.87030247 515 684 C521.48226799 692.3255216 527.92074101 700.68336578 534.34375 709.0546875 C539.20739731 715.38690364 544.09480199 721.69990277 549 728 C555.55417631 736.4179982 562.06817875 744.86566681 568.5546875 753.3359375 C569.41135557 754.4532038 570.26812552 755.57039199 571.125 756.6875 C571.53572754 757.22391113 571.94645508 757.76032227 572.36962891 758.31298828 C575.6933878 762.63904542 579.1221179 766.87275502 582.6015625 771.07421875 C584 773 584 773 584 775 C556.14060378 775.32719062 528.28149587 775.57399229 500.42056465 775.72537041 C487.48382428 775.79753002 474.54827833 775.89588686 461.61230469 776.05615234 C450.33585175 776.19579109 439.06026381 776.28603696 427.78297031 776.31723893 C421.81236542 776.33547656 415.84423482 776.37825857 409.87442398 776.48022079 C404.25116025 776.57548311 398.63138117 776.60452062 393.00738716 776.58350754 C390.94732125 776.58734933 388.88713514 776.61507464 386.82776833 776.66887665 C371.67679565 777.04518206 371.67679565 777.04518206 367.21346045 773.63501024 C363.65433494 769.86733604 361.38697584 765.56392351 359 761 C357.70942914 759.20802393 356.38846162 757.43679164 355.015625 755.70703125 C354.39800293 754.90249512 353.78038086 754.09795898 353.14404297 753.26904297 C352.51900879 752.45838379 351.89397461 751.64772461 351.25 750.8125 C343.11886074 740.20139214 335.18838463 729.45156529 327.29101562 718.66601562 C319.8592088 708.52248909 312.32596657 698.46822068 304.68017578 688.48486328 C300.6326111 683.18553534 296.69239396 677.83252567 292.85961914 672.37670898 C289.10258642 667.06541608 285.14621107 661.91192156 281.1875 656.75 C276.19152322 650.23472432 271.27392837 643.67976426 266.5 637 C261.80214536 630.43017246 256.97404143 623.97410658 252.0625 617.5625 C244.58279751 607.79837394 237.26791415 597.92231836 230 588 C227.58553253 584.70671338 225.1687494 581.41514295 222.75 578.125 C221.8832666 576.94442017 221.8832666 576.94442017 220.99902344 575.73999023 C216.67170739 569.86376195 212.22727568 564.09069358 207.6953125 558.37109375 C206 556 206 556 206 554 C200.38910468 558.32314886 195.06186193 562.70674908 190.1796875 567.84765625 C188 570 188 570 186.07229614 571.07450962 C183.35237487 572.81640137 181.80824493 574.29949052 180 577 C178.76330988 583.30549622 178.92944146 589.565689 179 595.97045898 C178.99239039 597.92222195 178.98126857 599.87397391 178.96690369 601.82569885 C178.93790809 607.1147839 178.9579903 612.40267505 178.9869194 617.69171786 C179.00881318 623.22245025 178.9855254 628.75298839 178.96704102 634.28370667 C178.93891208 644.7525906 178.95138577 655.22101629 178.97846508 665.68988711 C179.01271675 679.83941997 178.98421214 693.98881758 178.95923042 708.13834667 C178.9215346 730.42580216 178.96765501 752.7122813 179 775 C119.93 775 60.86 775 0 775 C0 519.25 0 263.5 0 0 Z " fill="#FFFFFF" transform="translate(3542,747)"/>
<path d="M0 0 C4.52987006 0.52686226 7.34620472 3.58684653 10.625 6.5 C11.24673096 7.04245361 11.86846191 7.58490723 12.5090332 8.14379883 C16.91350272 11.99849059 21.25027274 15.92724619 25.58203125 19.86328125 C28.12413644 22.10969731 30.73379395 24.24621053 33.375 26.375 C37.92860712 30.05636689 42.23582516 33.92774473 46.51904297 37.91357422 C49.75176204 40.90412641 53.06687666 43.73771685 56.5 46.5 C61.01777813 50.13499389 65.27818516 53.9671029 69.51953125 57.9140625 C72.75211747 60.90441358 76.06705866 63.73786329 79.5 66.5 C83.47629426 69.69931722 87.26668298 73.02584945 91 76.5 C95.61001639 80.7895776 100.37783236 84.80410897 105.28515625 88.75390625 C109.06567286 91.88167179 112.64480875 95.21273883 116.25390625 98.53515625 C118.91875166 100.92707297 121.64831825 103.19254884 124.4375 105.4375 C128.97316443 109.09571015 133.2570117 112.94742965 137.51928711 116.91381836 C140.75193975 119.90427 144.06696766 122.73779007 147.5 125.5 C152.01777813 129.13499389 156.27818516 132.9671029 160.51953125 136.9140625 C163.75211747 139.90441358 167.06705866 142.73786329 170.5 145.5 C175.01777813 149.13499389 179.27818516 152.9671029 183.51953125 156.9140625 C186.75211747 159.90441358 190.06705866 162.73786329 193.5 165.5 C198.01777813 169.13499389 202.27818516 172.9671029 206.51953125 176.9140625 C209.75211747 179.90441358 213.06705866 182.73786329 216.5 185.5 C221.01777813 189.13499389 225.27818516 192.9671029 229.51953125 196.9140625 C232.75211747 199.90441358 236.06705866 202.73786329 239.5 205.5 C244.01777813 209.13499389 248.27818516 212.9671029 252.51953125 216.9140625 C255.75211747 219.90441358 259.06705866 222.73786329 262.5 225.5 C266.47629426 228.69931722 270.26668298 232.02584945 274 235.5 C278.61001639 239.7895776 283.37783236 243.80410897 288.28515625 247.75390625 C292.06567286 250.88167179 295.64480875 254.21273883 299.25390625 257.53515625 C301.91875166 259.92707297 304.64831825 262.19254884 307.4375 264.4375 C311.97316443 268.09571015 316.2570117 271.94742965 320.51928711 275.91381836 C323.75193975 278.90427 327.06696766 281.73779007 330.5 284.5 C335.01777813 288.13499389 339.27818516 291.9671029 343.51953125 295.9140625 C346.75211747 298.90441358 350.06705866 301.73786329 353.5 304.5 C358.01777813 308.13499389 362.27818516 311.9671029 366.51953125 315.9140625 C369.75211747 318.90441358 373.06705866 321.73786329 376.5 324.5 C381.01777813 328.13499389 385.27818516 331.9671029 389.51953125 335.9140625 C392.75211747 338.90441358 396.06705866 341.73786329 399.5 344.5 C404.01777813 348.13499389 408.27818516 351.9671029 412.51953125 355.9140625 C415.75211747 358.90441358 419.06705866 361.73786329 422.5 364.5 C427.01777813 368.13499389 431.27818516 371.9671029 435.51953125 375.9140625 C439.5993222 379.68813268 443.86446973 383.18446479 448.1953125 386.66796875 C452.36401156 390.13414332 456.31208674 393.81977912 460.2734375 397.51953125 C462.77403718 399.7944321 465.33529508 401.92153017 468 404 C467.46568096 408.1123483 465.30189725 410.12656137 462.5 413.0625 C459.03660136 416.74914368 455.72873491 420.48686331 452.5625 424.4375 C448.90428985 428.97316443 445.05257035 433.2570117 441.08618164 437.51928711 C438.09573 440.75193975 435.26220993 444.06696766 432.5 447.5 C428.86500611 452.01777813 425.0328971 456.27818516 421.0859375 460.51953125 C418.09558642 463.75211747 415.26213671 467.06705866 412.5 470.5 C408.86500611 475.01777813 405.0328971 479.27818516 401.0859375 483.51953125 C398.09558642 486.75211747 395.26213671 490.06705866 392.5 493.5 C388.86500611 498.01777813 385.0328971 502.27818516 381.0859375 506.51953125 C378.09558642 509.75211747 375.26213671 513.06705866 372.5 516.5 C368.86500611 521.01777813 365.0328971 525.27818516 361.0859375 529.51953125 C358.09558642 532.75211747 355.26213671 536.06705866 352.5 539.5 C349.30067846 543.47629963 345.97410864 547.26663848 342.5 551 C338.18223217 555.64131956 334.12581003 560.43559152 330.1484375 565.375 C326.88758518 569.35916865 323.45656529 573.18553422 320 577 C315.53966777 575.58080338 312.67149202 573.13383441 309.375 569.9375 C305.52522183 566.30186276 301.63565625 562.8145187 297.5 559.5 C292.98222187 555.86500611 288.72181484 552.0328971 284.48046875 548.0859375 C281.24788253 545.09558642 277.93294134 542.26213671 274.5 539.5 C269.98222187 535.86500611 265.72181484 532.0328971 261.48046875 528.0859375 C258.24788253 525.09558642 254.93294134 522.26213671 251.5 519.5 C246.98222187 515.86500611 242.72181484 512.0328971 238.48046875 508.0859375 C235.24788253 505.09558642 231.93294134 502.26213671 228.5 499.5 C223.98222187 495.86500611 219.72181484 492.0328971 215.48046875 488.0859375 C212.24788253 485.09558642 208.93294134 482.26213671 205.5 479.5 C200.98222187 475.86500611 196.72181484 472.0328971 192.48046875 468.0859375 C189.24788253 465.09558642 185.93294134 462.26213671 182.5 459.5 C177.98222187 455.86500611 173.72181484 452.0328971 169.48046875 448.0859375 C166.24788253 445.09558642 162.93294134 442.26213671 159.5 439.5 C155.52370574 436.30068278 151.73331702 432.97415055 148 429.5 C143.38998361 425.2104224 138.62216764 421.19589103 133.71484375 417.24609375 C129.93432714 414.11832821 126.35519125 410.78726117 122.74609375 407.46484375 C120.08124834 405.07292703 117.35168175 402.80745116 114.5625 400.5625 C110.02683557 396.90428985 105.7429883 393.05257035 101.48071289 389.08618164 C98.24806025 386.09573 94.93303234 383.26220993 91.5 380.5 C86.98222187 376.86500611 82.72181484 373.0328971 78.48046875 369.0859375 C75.24788253 366.09558642 71.93294134 363.26213671 68.5 360.5 C63.98222187 356.86500611 59.72181484 353.0328971 55.48046875 349.0859375 C52.24788253 346.09558642 48.93294134 343.26213671 45.5 340.5 C40.98222187 336.86500611 36.72181484 333.0328971 32.48046875 329.0859375 C28.40176187 325.31287016 24.1406539 321.81490088 19.8046875 318.33984375 C16.10766623 315.25555999 12.60269208 311.98010369 9.14648438 308.62890625 C6.27598677 305.91239683 3.77456676 304.20099852 0 303 C-0.84820313 303.72703125 -1.69640625 304.4540625 -2.5703125 305.203125 C-3.12968506 305.68257568 -3.68905762 306.16202637 -4.26538086 306.65600586 C-5.52405294 307.73489125 -6.78267789 308.81383164 -8.04125977 309.89282227 C-11.19961355 312.60037397 -14.35852082 315.30726887 -17.51953125 318.01171875 C-24.1649763 323.69914218 -30.78876924 329.41053755 -37.39428711 335.14428711 C-42.15661197 339.27566092 -46.93985982 343.38195682 -51.73046875 347.48046875 C-56.00138874 351.13714407 -60.25403077 354.81439583 -64.5 358.5 C-72.21358535 365.19452827 -79.96834462 371.84022705 -87.72949219 378.47949219 C-94.97248512 384.67668355 -102.19560865 390.89565979 -109.39428711 397.14428711 C-114.15661197 401.27566092 -118.93985982 405.38195682 -123.73046875 409.48046875 C-128.00138843 413.1371438 -132.25406669 416.81435479 -136.5 420.5 C-141.89254979 425.1809556 -147.30446436 429.83835664 -152.73046875 434.48046875 C-157.00138874 438.13714407 -161.25403077 441.81439583 -165.5 445.5 C-173.21358535 452.19452827 -180.96834462 458.84022705 -188.72949219 465.47949219 C-195.97248512 471.67668355 -203.19560865 477.89565979 -210.39428711 484.14428711 C-215.15661197 488.27566092 -219.93985982 492.38195682 -224.73046875 496.48046875 C-229.00138843 500.1371438 -233.25406669 503.81435479 -237.5 507.5 C-242.89254979 512.1809556 -248.30446436 516.83835664 -253.73046875 521.48046875 C-258.00138843 525.1371438 -262.25406669 528.81435479 -266.5 532.5 C-271.89254979 537.1809556 -277.30446436 541.83835664 -282.73046875 546.48046875 C-286.36714509 549.59411748 -289.99233768 552.72054802 -293.6081543 555.85839844 C-294.86143245 556.94589906 -296.11549204 558.03249984 -297.37036133 559.11816406 C-300.56537655 561.8826394 -303.74956504 564.65817131 -306.91796875 567.453125 C-308.17439572 568.55217874 -309.43090314 569.65114051 -310.6875 570.75 C-311.55181641 571.52053711 -311.55181641 571.52053711 -312.43359375 572.30664062 C-317.38165838 576.61263496 -317.38165838 576.61263496 -321 577 C-327.53036934 570.04974228 -333.87989339 563.05314175 -339.85546875 555.61328125 C-341.99874956 553.00152377 -344.2238033 550.49634698 -346.5 548 C-349.59555196 544.60401318 -352.55151207 541.13828469 -355.4375 537.5625 C-359.29825137 532.788597 -363.37437075 528.26611572 -367.53125 523.75 C-370.72881296 520.18815771 -373.71388343 516.47434167 -376.71875 512.75 C-379.06718968 509.91900422 -381.50909902 507.20616402 -384 504.5 C-388.09351091 500.05272888 -391.92442499 495.45282537 -395.71875 490.75 C-398.06718968 487.91900422 -400.50909902 485.20616402 -403 482.5 C-407.11378909 478.0301488 -410.97087297 473.40955107 -414.78515625 468.68359375 C-416.95632827 466.05291443 -419.20241357 463.52057576 -421.5 461 C-424.59555196 457.60401318 -427.55151207 454.13828469 -430.4375 450.5625 C-434.29825137 445.788597 -438.37437075 441.26611572 -442.53125 436.75 C-444.94378104 434.06262366 -447.2325621 431.31034556 -449.5 428.5 C-453.4125712 423.6509091 -457.5406944 419.04590391 -461.7578125 414.4609375 C-464.26581051 411.70825676 -466.65523691 408.89187448 -469 406 C-467.48147523 402.16054818 -465.22197262 400.32508945 -462 397.8125 C-458.22448968 394.80880624 -454.55939005 391.75707006 -451 388.5 C-447.60401318 385.40444804 -444.13828469 382.44848793 -440.5625 379.5625 C-435.788597 375.70174863 -431.26611572 371.62562925 -426.75 367.46875 C-423.18815771 364.27118704 -419.47434167 361.28611657 -415.75 358.28125 C-412.91900422 355.93281032 -410.20616402 353.49090098 -407.5 351 C-403.0301488 346.88621091 -398.40955107 343.02912703 -393.68359375 339.21484375 C-391.05291443 337.04367173 -388.52057576 334.79758643 -386 332.5 C-382.60401318 329.40444804 -379.13828469 326.44848793 -375.5625 323.5625 C-370.788597 319.70174863 -366.26611572 315.62562925 -361.75 311.46875 C-358.18815771 308.27118704 -354.47434167 305.28611657 -350.75 302.28125 C-347.91900422 299.93281032 -345.20616402 297.49090098 -342.5 295 C-338.0301488 290.88621091 -333.40955107 287.02912703 -328.68359375 283.21484375 C-326.05291443 281.04367173 -323.52057576 278.79758643 -321 276.5 C-317.60401318 273.40444804 -314.13828469 270.44848793 -310.5625 267.5625 C-305.788597 263.70174863 -301.26611572 259.62562925 -296.75 255.46875 C-293.18815771 252.27118704 -289.47434167 249.28611657 -285.75 246.28125 C-282.91900422 243.93281032 -280.20616402 241.49090098 -277.5 239 C-273.0301488 234.88621091 -268.40955107 231.02912703 -263.68359375 227.21484375 C-261.05291443 225.04367173 -258.52057576 222.79758643 -256 220.5 C-252.60401318 217.40444804 -249.13828469 214.44848793 -245.5625 211.5625 C-240.788597 207.70174863 -236.26611572 203.62562925 -231.75 199.46875 C-228.18815771 196.27118704 -224.47434167 193.28611657 -220.75 190.28125 C-217.91900422 187.93281032 -215.20616402 185.49090098 -212.5 183 C-208.0301488 178.88621091 -203.40955107 175.02912703 -198.68359375 171.21484375 C-196.05291443 169.04367173 -193.52057576 166.79758643 -191 164.5 C-187.60401318 161.40444804 -184.13828469 158.44848793 -180.5625 155.5625 C-176.75912497 152.48663412 -173.09917348 149.31246834 -169.5 146 C-165.0301488 141.88621091 -160.40955107 138.02912703 -155.68359375 134.21484375 C-153.05291443 132.04367173 -150.52057576 129.79758643 -148 127.5 C-144.60401318 124.40444804 -141.13828469 121.44848793 -137.5625 118.5625 C-132.788597 114.70174863 -128.26611572 110.62562925 -123.75 106.46875 C-120.18815771 103.27118704 -116.47434167 100.28611657 -112.75 97.28125 C-109.91900422 94.93281032 -107.20616402 92.49090098 -104.5 90 C-100.0301488 85.88621091 -95.40955107 82.02912703 -90.68359375 78.21484375 C-88.05291443 76.04367173 -85.52057576 73.79758643 -83 71.5 C-79.60401318 68.40444804 -76.13828469 65.44848793 -72.5625 62.5625 C-67.788597 58.70174863 -63.26611572 54.62562925 -58.75 50.46875 C-55.18815771 47.27118704 -51.47434167 44.28611657 -47.75 41.28125 C-44.91900422 38.93281032 -42.20616402 36.49090098 -39.5 34 C-35.0301488 29.88621091 -30.40955107 26.02912703 -25.68359375 22.21484375 C-22.20656654 19.34515753 -18.89307321 16.31435682 -15.5625 13.27734375 C-11.88909853 10.01272019 -8.07683463 6.92978016 -4.25 3.84765625 C-1.97880251 2.04394839 -1.97880251 2.04394839 0 0 Z " fill="#FFFFFF" transform="translate(909,531)"/>
<path d="M0 0 C1.60142843 1.90415592 3.08902857 3.81262936 4.5625 5.8125 C5.47135075 7.01921353 6.38152936 8.224928 7.29296875 9.4296875 C7.97818604 10.33799316 7.97818604 10.33799316 8.67724609 11.26464844 C18.53114895 24.1922124 29.40733112 36.40660342 40.45874023 48.31518555 C41.6428322 49.60956519 42.81451129 50.9153087 43.98071289 52.22583008 C49.48701096 58.41202258 55.19350705 64.34544964 61.0625 70.1875 C61.90876953 71.03763672 62.75503906 71.88777344 63.62695312 72.76367188 C68.05034384 77.18024164 72.54023298 81.44944316 77.28198242 85.52270508 C79.44360994 87.38145285 81.53088508 89.31579931 83.625 91.25 C89.27853712 96.34943853 95.2371607 101.00829093 101.26367188 105.65332031 C102.86887721 106.8983024 104.45861837 108.16315465 106.046875 109.4296875 C121.06033715 121.2926563 137.27354349 131.72448411 154 141 C155.25490234 141.69923584 155.25490234 141.69923584 156.53515625 142.41259766 C200.55557716 166.72154552 249.67352632 180.55935667 300 182 C301.051875 182.03287109 301.051875 182.03287109 302.125 182.06640625 C384.65657523 184.27707344 463.86800972 151.6540324 525 97 C525.90105469 96.19820312 526.80210937 95.39640625 527.73046875 94.5703125 C529.38442291 93.08816443 531.03305854 91.60005544 532.67578125 90.10546875 C534.16043934 88.76054319 535.65682843 87.42838175 537.16796875 86.11328125 C543.24391416 80.79029293 548.96786006 75.13908656 554.6875 69.4375 C555.89974243 68.232146 555.89974243 68.232146 557.13647461 67.00244141 C561.96444107 62.16206883 566.54403731 57.18234466 571 52 C572.45445517 50.39231627 573.91220895 48.78760285 575.375 47.1875 C580.10552215 41.93845518 584.57450234 36.50712887 589 31 C589.4630957 30.42588379 589.92619141 29.85176758 590.40332031 29.26025391 C591.91686674 27.38355624 593.42786971 25.50484915 594.9375 23.625 C595.69498535 22.6817688 595.69498535 22.6817688 596.46777344 21.71948242 C598.98278438 18.57330201 601.46283102 15.40748911 603.8828125 12.1875 C604.335354 11.58728027 604.78789551 10.98706055 605.25415039 10.36865234 C606.48973286 8.72197759 607.71587326 7.06823018 608.94140625 5.4140625 C611 3 611 3 614 2 C615.78320312 2.94946289 615.78320312 2.94946289 617.78125 4.47265625 C618.53083984 5.03533203 619.28042969 5.59800781 620.05273438 6.17773438 C621.26413086 7.11069336 621.26413086 7.11069336 622.5 8.0625 C624.22896251 9.36615622 625.95813493 10.66953409 627.6875 11.97265625 C628.57179688 12.64441895 629.45609375 13.31618164 630.3671875 14.00830078 C634.38212965 17.04556878 638.44130255 20.02161736 642.5 23 C644.08358329 24.16632736 645.6669158 25.3329953 647.25 26.5 C648.03375 27.0775 648.8175 27.655 649.625 28.25 C751.75 103.5 751.75 103.5 754.12695312 105.25146484 C755.70374329 106.41329315 757.28056599 107.5750773 758.85742188 108.73681641 C762.91613927 111.72714107 766.97421743 114.7183273 771.03125 117.7109375 C779.33453329 123.83459881 787.6414779 129.95181098 796 136 C794.39344852 141.25497807 791.05475315 145.08208035 787.6875 149.3125 C787.06593018 150.10213135 786.44436035 150.8917627 785.80395508 151.70532227 C780.08285472 158.95137356 774.27221658 166.1247389 768.41943359 173.26464844 C767.15551382 174.80987406 765.89946211 176.36152781 764.64453125 177.9140625 C755.11400475 189.68400234 745.11226146 201.02311066 734.77172852 212.0847168 C733.38812532 213.58042674 732.01590191 215.08666578 730.64819336 216.59692383 C724.12030209 223.80148074 717.38849017 230.76789705 710.5012207 237.62915039 C708.79976222 239.32519726 707.10378737 241.02659821 705.40820312 242.72851562 C700.30400691 247.83582379 695.18905175 252.86269574 689.69262695 257.55249023 C687.12015053 259.75243437 684.6642983 262.06794032 682.1875 264.375 C677.61702095 268.59274087 672.9306113 272.6095264 668.08203125 276.5078125 C665.76835882 278.37869084 663.47813421 280.26731879 661.19921875 282.1796875 C631.48710376 307.05478282 598.97016288 328.41972876 565 347 C564.06671875 347.51062988 563.1334375 348.02125977 562.171875 348.54736328 C496.32444008 384.31052146 422.64750838 404.71840455 348 410 C347.20416504 410.05784668 346.40833008 410.11569336 345.58837891 410.17529297 C269.96973506 415.4005304 194.5860464 403.7838459 94 367 C92.92685547 366.52739746 91.85371094 366.05479492 90.74804688 365.56787109 C27.4396919 337.46939404 -30.521154 298.08738411 -81.07250977 250.78393555 C-82.56145303 249.40588508 -84.06153401 248.03986264 -85.56616211 246.67895508 C-93.07883205 239.86804206 -100.32614401 232.82922305 -107.48364258 225.64672852 C-109.32454708 223.80041754 -111.17080272 221.95957727 -113.01757812 220.11914062 C-118.36191881 214.77780712 -123.65600949 209.44665635 -128.55639648 203.6887207 C-130.90687473 200.93914214 -133.40078927 198.32527083 -135.875 195.6875 C-140.31465293 190.91589105 -144.51659141 186.0183201 -148.59765625 180.93359375 C-151.44960721 177.45096746 -154.40820927 174.07219118 -157.375 170.6875 C-163.08455674 164.15277617 -168.5020313 157.43081674 -173.79833984 150.55859375 C-175.58568194 148.24035077 -177.3875955 145.93349475 -179.1875 143.625 C-180.12537819 142.41696018 -181.06305076 141.20876045 -182 140 C-180.45674562 135.92469952 -177.88469648 134.12093243 -174.4375 131.5625 C-173.25374998 130.67468749 -172.07016444 129.78665564 -170.88671875 128.8984375 C-169.93998291 128.19412598 -169.93998291 128.19412598 -168.97412109 127.47558594 C-165.54244993 124.9105327 -162.14942253 122.29504049 -158.75 119.6875 C-157.30231899 118.58042094 -155.85439965 117.47365347 -154.40625 116.3671875 C-153.68050781 115.81256836 -152.95476562 115.25794922 -152.20703125 114.68652344 C-150.73567708 113.56217448 -149.26432292 112.43782552 -147.79296875 111.31347656 C-140.68864673 105.88428553 -133.58483048 100.45461451 -126.5 95 C-117.94789849 88.41573279 -109.36880362 81.86678047 -100.79296875 75.31347656 C-93.68864673 69.88428553 -86.58483048 64.45461451 -79.5 59 C-72.40936531 53.54091682 -65.29963842 48.106922 -58.18945312 42.67333984 C-54.62571009 39.94966737 -51.06288197 37.2247987 -47.5 34.5 C-43.20359801 31.21422442 -38.90697288 27.92874259 -34.609375 24.64453125 C-33.15624202 23.53386461 -31.70311694 22.42318763 -30.25 21.3125 C-29.19353271 20.50522461 -29.19353271 20.50522461 -28.11572266 19.68164062 C-24.25132716 16.7272043 -20.39443296 13.76342176 -16.54516602 10.78930664 C-2.56871331 0 -2.56871331 0 0 0 Z " fill="#FFFFFF" transform="translate(601,1293)"/>
<path d="M0 0 C0.94149902 0.12890625 1.88299805 0.2578125 2.85302734 0.390625 C73.61670991 10.43825388 143.67129142 43.32230532 188 101 C188.78375 101.97839844 189.5675 102.95679688 190.375 103.96484375 C224 146.19466658 224 146.19466658 224 163 C223.03924561 163.49290527 222.07849121 163.98581055 221.08862305 164.49365234 C197.71304055 176.47495136 197.71304055 176.47495136 174.44140625 188.65625 C171.14465675 190.40092671 167.83828584 192.12615943 164.52734375 193.84375 C155.25494782 198.65528282 146.0197999 203.5122432 136.875 208.5625 C124.88460542 215.17761656 112.67838622 221.37400641 100.47802734 227.59008789 C99.69177475 227.99134888 98.90552216 228.39260986 98.09544373 228.80603027 C96.61310102 229.56224057 95.12996358 230.31689581 93.64588928 231.06970215 C90.74258536 232.55074772 87.92403462 234.04655022 85.14257812 235.75097656 C83 237 83 237 80.91015625 237.01171875 C78.09902158 235.52279466 77.08989836 233.51415347 75.4375 230.8125 C55.69863008 200.1156545 27.84020958 177.0186443 -8.3046875 169.00390625 C-42.8424149 161.90733427 -80.89125547 166.11008294 -110.75 185.75 C-139.40637134 205.45624555 -157.41856337 233.84139007 -164 268 C-169.75782315 302.36239329 -162.74434894 340.18816414 -142.40234375 368.75 C-128.8973159 386.86219266 -112.56282124 399.76170856 -92 409 C-90.93265625 409.48339844 -89.8653125 409.96679688 -88.765625 410.46484375 C-56.75875386 423.82811863 -19.61726735 421.25743787 12.125 408.6875 C27.94175843 401.74461564 41.40096349 392.88270333 54 381 C54.68835937 380.37609375 55.37671875 379.7521875 56.0859375 379.109375 C65.38707241 370.35969078 71.80781509 359.05036213 78 348 C82.06102548 349.51054966 85.79982254 351.43355823 89.5625 353.5625 C90.24030518 353.94470703 90.91811035 354.32691406 91.61645508 354.72070312 C99.16475938 359.02419455 106.56796299 363.56818959 113.98269653 368.09631348 C123.2667689 373.76466478 132.60557936 379.32904408 142 384.8125 C150.73134943 389.91043988 159.44476265 395.03317254 168.10205078 400.25634766 C173.33596789 403.41078883 178.58679708 406.53531948 183.84765625 409.64453125 C185.2665258 410.48387722 186.68538968 411.32323277 188.10424805 412.16259766 C190.20649159 413.40608753 192.30920117 414.64874266 194.41372681 415.8883667 C203.74837225 421.38709308 212.92909494 427.07580195 222 433 C220.91760251 436.41494299 219.83827241 439.60490004 218.0390625 442.70703125 C217.6562915 443.36735352 217.27352051 444.02767578 216.87915039 444.70800781 C216.46528076 445.40249023 216.05141113 446.09697266 215.625 446.8125 C215.18728271 447.54952148 214.74956543 448.28654297 214.29858398 449.04589844 C206.32793482 462.25976872 197.21428104 474.45072174 187 486 C186.27554688 486.8353125 185.55109375 487.670625 184.8046875 488.53125 C175.06441821 499.60137156 164.66953425 509.97137874 153 519 C151.99582031 519.79792969 150.99164062 520.59585938 149.95703125 521.41796875 C110.18132236 552.83434852 62.74187271 572.13940256 13 580.875 C11.91775146 581.06602295 10.83550293 581.2570459 9.72045898 581.45385742 C-8.93573266 584.51304554 -27.62346692 585.38333127 -46.5 585.3125 C-47.54348602 585.31034485 -48.58697205 585.3081897 -49.66207886 585.30596924 C-95.12705849 585.15608421 -139.25776053 577.52535036 -181 559 C-181.76489746 558.66500488 -182.52979492 558.33000977 -183.31787109 557.98486328 C-206.97157611 547.5568858 -228.72270963 533.1983669 -248 516 C-248.79664062 515.31292969 -249.59328125 514.62585937 -250.4140625 513.91796875 C-263.00972608 502.90202887 -274.87544005 491.05983292 -284.82080078 477.58496094 C-285.93848013 476.08268882 -287.0913902 474.60681668 -288.24609375 473.1328125 C-328.29041809 421.59626673 -344.27898535 356.42361474 -344.1875 292.0625 C-344.18656342 291.20528351 -344.18562683 290.34806702 -344.18466187 289.46487427 C-344.07435396 242.69377879 -335.69747853 196.21184966 -315 154 C-314.61086426 153.20255371 -314.22172852 152.40510742 -313.82080078 151.58349609 C-305.40405103 134.52587176 -295.04753894 118.71635396 -283 104 C-282.54109375 103.43812988 -282.0821875 102.87625977 -281.609375 102.29736328 C-269.22703213 87.28127612 -255.52703177 72.78642866 -240 61 C-239.02546875 60.22011719 -238.0509375 59.44023438 -237.046875 58.63671875 C-172.01010539 6.82053837 -81.46401087 -11.29781647 0 0 Z " fill="#FFFFFF" transform="translate(3281,949)"/>
<path d="M0 0 C59.4 0 118.8 0 180 0 C180 255.75 180 511.5 180 775 C120.6 775 61.2 775 0 775 C0 519.25 0 263.5 0 0 Z " fill="#FFFFFF" transform="translate(2452,747)"/>
<path d="M0 0 C59.73 0 119.46 0 181 0 C181 185.13 181 370.26 181 561 C121.27 561 61.54 561 0 561 C0 375.87 0 190.74 0 0 Z " fill="#FFFFFF" transform="translate(2711,961)"/>
<path d="M0 0 C0.68497559 0.00054382 1.36995117 0.00108765 2.07568359 0.00164795 C13.12009639 0.04192075 23.4675694 0.8641898 34 4.375 C34.64243652 4.58398926 35.28487305 4.79297852 35.94677734 5.00830078 C61.99168028 13.75986016 81.25756324 31.97639684 94.125 56 C106.39053104 81.35095052 107.16764592 111.54463575 98.54296875 138.1328125 C94.54863166 149.57604848 88.65092003 159.98323966 81 169.375 C80.33613281 170.20257812 79.67226562 171.03015625 78.98828125 171.8828125 C63.19882247 190.50328329 40.16783464 202.31425546 16 205.375 C10.97603851 205.69287898 5.97068031 205.75647414 0.9375 205.75 C0.25568665 205.74978851 -0.42612671 205.74957703 -1.12860107 205.74935913 C-26.43751198 205.6711514 -49.58107074 198.02474149 -69 181.375 C-69.88365234 180.70791016 -69.88365234 180.70791016 -70.78515625 180.02734375 C-88.60620811 166.25078593 -99.14471527 141.78372972 -102.4921875 120.1328125 C-106.05063227 91.42634812 -100.9651267 63.15590553 -83.25 39.8125 C-68.16695137 20.55008395 -48.61886809 8.38707551 -25 2.375 C-23.92008789 2.09462891 -23.92008789 2.09462891 -22.81835938 1.80859375 C-15.26076579 0.06117327 -7.72671102 -0.02305716 0 0 Z " fill="#FFFFFF" transform="translate(2800,706.625)"/>
</svg>
